<svg width="39" height="52" viewBox="0 0 39 52" fill="none" xmlns="http://www.w3.org/2000/svg">
<path d="M38.4135 6.81847C38.4135 1.36369 33.2075 0 29.0975 0V0.818217C31.5635 0.818217 33.4815 1.63643 33.4815 3.54561C33.4815 4.63656 32.6595 6.27299 30.1935 6.27299C28.2755 6.27299 24.1655 5.18204 21.1515 4.09108C17.5895 2.72739 14.3015 1.63643 11.5616 1.63643C6.08156 1.63643 2.24556 5.72752 2.24556 10.3641C2.24556 14.4552 5.25956 15.8189 6.35556 16.3643L6.62956 15.8189C6.08156 15.2734 5.25956 14.7279 5.25956 13.0915C5.25956 12.0005 6.35556 10.0913 9.09555 10.0913C11.5616 10.0913 14.8495 11.1823 19.2335 12.546C23.0695 13.6369 27.1795 14.4552 29.3715 14.7279V23.1828L25.2615 26.7284V27.0012L29.3715 30.5468V42.2745C27.1795 43.6382 24.7135 43.911 22.5215 43.911C18.4115 43.911 14.8495 42.82 11.8356 39.5471L23.0695 34.0924V15.2734L9.36955 21.2736C10.4656 17.728 13.4795 15.2734 16.4935 13.6369L16.2195 12.8187C7.99955 15.0006 0.601562 22.6373 0.601562 31.9105C0.601562 42.82 9.64355 51.0022 19.7815 51.0022C30.7415 51.0022 37.8655 42.2745 37.8655 33.2741H37.3175C35.6735 36.8198 33.2075 40.0926 30.1935 41.7291V30.5468L34.5775 27.0012V26.7284L30.1935 23.1828V14.7279C34.3035 14.7279 38.4135 12.0005 38.4135 6.81847ZM14.5755 36.8198L11.2876 38.4562C9.36955 36.0015 8.27355 32.7287 8.27355 28.0921C8.27355 26.1829 8.27355 24.001 8.82155 22.3646L14.5755 19.9099V36.8198Z" fill="#141731"/>
</svg>
