<svg width="24" height="24" viewBox="0 0 24 24" fill="none" xmlns="http://www.w3.org/2000/svg">
<path d="M8.96112 8.86039L11.538 3.29459C11.7198 2.9018 12.2802 2.9018 12.462 3.29459L15.0389 8.86039C15.113 9.02048 15.2653 9.1307 15.441 9.15146L21.5505 9.87314C21.9816 9.92407 22.1548 10.455 21.836 10.7487L17.3191 14.9102C17.1892 15.0299 17.1311 15.2083 17.1655 15.3812L18.3645 21.393C18.4492 21.8173 17.9958 22.1454 17.617 21.9341L12.2485 18.9403C12.0941 18.8542 11.9059 18.8542 11.7515 18.9403L6.38303 21.9341C6.00416 22.1454 5.55084 21.8173 5.63545 21.393L6.83446 15.3812C6.86895 15.2083 6.81078 15.0299 6.68087 14.9102L2.16397 10.7487C1.8452 10.455 2.01836 9.92407 2.44952 9.87314L8.559 9.15146C8.73472 9.1307 8.887 9.02048 8.96112 8.86039Z" fill="white" stroke="white" stroke-width="2" stroke-linecap="round" stroke-linejoin="round"/>
</svg>
