<svg width="537" height="537" viewBox="0 0 537 537" fill="none" xmlns="http://www.w3.org/2000/svg">
<path d="M303.751 349.367H233.241C208.068 349.367 187.624 329.024 187.624 303.883M349.367 303.883V233.11M233.236 1C208.063 1 187.62 21.3434 187.62 46.4838V117.256C187.62 142.397 208.063 162.741 233.236 162.741H303.722C318.898 162.855 329.144 163.736 337.172 166.192C344.911 168.56 350.878 172.486 357.223 179.392L357.312 179.489L357.405 179.582L357.421 179.598L357.887 180.063L357.898 180.075C364.756 186.986 368.659 193.204 370.977 200.576C373.359 208.15 374.196 217.33 374.246 230.464L374.246 230.476L374.247 232.836L374.247 232.856L374.246 233.088V303.881C374.246 329.021 394.689 349.366 419.861 349.366H490.371C515.545 349.366 535.988 329.021 535.988 303.881V233.109C535.988 207.968 515.545 187.625 490.371 187.625H414.259C401.871 187.498 393.271 186.452 386.134 183.956C379.166 181.52 373.166 177.548 366.271 170.849C353.711 157.096 349.402 138.406 349.362 118.036C349.362 117.823 349.362 117.608 349.362 117.392V117.382L349.362 117.266V46.4838C349.362 21.3433 328.919 1 303.746 1L233.236 1ZM419.861 1C394.689 1 374.246 21.3434 374.246 46.4838V117.256C374.246 142.397 394.689 162.741 419.861 162.741H490.371C515.545 162.741 535.988 142.397 535.988 117.256V46.4838C535.988 21.3433 515.545 1 490.371 1L419.861 1ZM303.783 536C328.956 536 349.399 515.657 349.399 490.516V419.744C349.399 394.603 328.956 374.259 303.783 374.259H233.297C218.121 374.145 207.875 373.264 199.847 370.808C192.108 368.44 186.141 364.514 179.796 357.608L179.707 357.511L179.614 357.418L179.598 357.402L179.132 356.937L179.121 356.925C172.263 350.014 168.36 343.796 166.042 336.424C163.66 328.85 162.823 319.67 162.773 306.536L162.773 306.524L162.772 304.164L162.772 304.144L162.773 303.912V233.119C162.773 207.979 142.331 187.634 117.158 187.634H46.6479C21.4741 187.634 1.03123 207.979 1.03123 233.119L1.03123 303.891C1.03123 329.032 21.4744 349.375 46.6479 349.375H122.76C135.148 349.502 143.748 350.548 150.885 353.044C157.853 355.48 163.853 359.452 170.748 366.15C183.308 379.904 187.617 398.594 187.657 418.964C187.657 419.177 187.657 419.392 187.657 419.608V419.618L187.657 419.734V490.516C187.657 515.657 208.1 536 233.273 536H303.783ZM117.158 536C142.33 536 162.773 515.657 162.773 490.516V419.744C162.773 394.603 142.331 374.259 117.158 374.259H46.6479C21.4741 374.259 1.03123 394.603 1.03123 419.744L1.03123 490.516C1.03123 515.657 21.4744 536 46.6479 536H117.158ZM187.625 232.975C187.625 232.759 187.625 232.544 187.624 232.331C187.585 211.961 183.276 193.271 170.716 179.517C163.821 172.819 157.82 168.847 150.853 166.411C143.716 163.915 135.117 162.869 122.729 162.742H46.6166C21.4431 162.742 1 142.399 1 117.258L1 46.4856C1 21.3453 21.4429 1.00071 46.6166 1.00071L117.127 1.00071C142.299 1.00071 162.741 21.3455 162.741 46.4856V117.279L162.74 117.511L162.74 117.531L162.741 119.891L162.741 119.903C162.791 133.037 163.628 142.217 166.01 149.791C168.328 157.163 172.23 163.381 179.089 170.292L179.1 170.303L179.566 170.769L179.582 170.785L179.675 170.878L179.764 170.975C186.109 177.881 192.076 181.807 199.815 184.175C207.843 186.631 218.088 187.512 233.265 187.626H303.751C328.924 187.626 349.375 207.954 349.375 233.094V303.887L349.374 304.12L349.374 304.14L349.374 306.5L349.375 306.512C349.424 319.646 350.261 328.826 352.643 336.4C354.961 343.772 358.864 349.99 365.722 356.901L365.733 356.912L366.199 357.378L366.215 357.394L366.308 357.487L366.397 357.584C372.742 364.489 378.71 368.416 386.449 370.783C394.477 373.239 404.722 374.121 419.898 374.234H490.385C515.557 374.234 536 394.579 536 419.719V490.492C536 515.632 515.557 535.976 490.385 535.976H419.874C394.701 535.976 374.258 515.632 374.258 490.492V419.71L374.258 419.594V419.584C374.258 419.368 374.258 419.152 374.258 418.939C374.219 398.57 369.909 379.88 357.35 366.126C350.455 359.427 344.454 355.456 337.486 353.02C330.35 350.524 321.749 349.478 309.362 349.351H233.249C208.076 349.351 187.632 329.008 187.632 303.867L187.625 232.975Z" stroke="#304761" stroke-width="1.5"/>
</svg>
