<svg width="114" height="28" viewBox="0 0 114 28" fill="none" xmlns="http://www.w3.org/2000/svg">
<g clip-path="url(#clip0_6815_11619)">
<path d="M32.6645 19.9883H34.0505L35.1305 17.1263H40.6745L41.6285 19.9883H43.1225L38.7305 7.38828H37.5245L32.6645 19.9883ZM38.0645 9.26028H38.0825L40.2785 15.9023H35.5805L38.0645 9.26028ZM45.0364 11.2043V24.4883H46.2604V19.1243C47.0164 19.8263 48.0784 20.2043 49.0684 20.2043C51.6424 20.2043 53.5864 18.0623 53.5864 15.5603C53.5864 13.0583 51.6604 10.9883 49.0864 10.9883C48.0064 10.9883 46.9264 11.4563 46.2604 12.3383V11.2043H45.0364ZM46.2604 13.7603C46.7644 12.7343 47.9704 12.1043 49.0504 12.1043C50.9764 12.1043 52.3264 13.7423 52.3264 15.6323C52.3264 17.5043 50.9584 19.0883 49.0504 19.0883C48.0424 19.0883 46.9084 18.5483 46.2604 17.7023V13.7603ZM56.0579 11.2043V24.4883H57.2819V19.1243C58.0379 19.8263 59.0999 20.2043 60.0899 20.2043C62.6639 20.2043 64.6079 18.0623 64.6079 15.5603C64.6079 13.0583 62.6819 10.9883 60.1079 10.9883C59.0279 10.9883 57.9479 11.4563 57.2819 12.3383V11.2043H56.0579ZM57.2819 13.7603C57.7859 12.7343 58.9919 12.1043 60.0719 12.1043C61.9979 12.1043 63.3479 13.7423 63.3479 15.6323C63.3479 17.5043 61.9799 19.0883 60.0719 19.0883C59.0639 19.0883 57.9299 18.5483 57.2819 17.7023V13.7603ZM78.0954 9.35028L78.9774 8.37828C77.9154 7.56828 76.6734 7.17228 75.2334 7.17228C73.2534 7.17228 71.5434 8.23428 71.5434 10.5383C71.5434 12.5903 73.3974 13.2383 75.1254 13.8863C76.6554 14.4623 78.0954 15.0203 78.0954 16.5323C78.0954 18.2243 76.7094 18.9803 75.2694 18.9803C74.0274 18.9803 73.0734 18.7823 71.8314 17.5223L70.8234 18.4223C72.1194 19.7003 73.4694 20.2043 75.2514 20.2043C77.0514 20.2043 79.5174 19.1423 79.5174 16.3163C79.5174 14.2103 77.8794 13.4183 76.2414 12.8063C74.5854 12.1943 72.9114 11.7623 72.9114 10.3583C72.9114 9.13428 73.9014 8.39628 75.4494 8.39628C76.4394 8.39628 77.5554 8.81028 78.0954 9.35028ZM86.5082 12.3203V11.2043H83.9522V9.00828H82.7282V11.2043H81.4862V12.3203H82.7282V17.3063C82.7282 19.1243 83.5742 20.1503 85.2842 20.1503C85.8062 20.1503 86.2922 19.9883 86.6882 19.7723L86.3822 18.8003C85.9862 18.9443 85.6262 19.0343 85.3022 19.0343C84.4922 19.0343 83.9522 18.7463 83.9522 17.1623V12.3203H86.5082ZM92.2306 10.9883C89.6206 10.9883 87.8026 13.0403 87.8026 15.5963C87.8026 18.1523 89.6206 20.2043 92.2306 20.2043C94.8406 20.2043 96.6586 18.1523 96.6586 15.5963C96.6586 13.0403 94.8406 10.9883 92.2306 10.9883ZM95.3986 15.5963C95.3986 17.4323 94.1926 19.0883 92.2306 19.0883C90.2686 19.0883 89.0626 17.4323 89.0626 15.5963C89.0626 13.7603 90.2686 12.1043 92.2306 12.1043C94.1926 12.1043 95.3986 13.7603 95.3986 15.5963ZM100.348 11.2043H99.1243V19.9883H100.348V14.1203C100.978 13.0043 101.644 12.2483 102.652 12.2483C102.994 12.2483 103.21 12.2843 103.48 12.4103L103.642 11.0603C103.39 11.0063 103.138 10.9883 102.904 10.9883C101.68 10.9883 100.834 11.8883 100.348 12.8603V11.2043ZM112.726 15.9023C112.744 15.7403 112.78 15.3803 112.78 15.0923C112.78 12.9143 111.142 10.9883 108.874 10.9883C106.48 10.9883 104.572 12.9503 104.572 15.5423C104.572 18.1163 106.138 20.2043 109.018 20.2043C110.35 20.2043 111.88 19.5203 112.582 18.2063L111.718 17.6483C111.088 18.8363 110.098 19.1603 108.928 19.1603C107.02 19.1603 105.904 17.5943 105.796 15.9023H112.726ZM111.574 14.8583H105.832C106.084 13.2203 107.182 12.0323 108.874 12.0323C110.368 12.0323 111.502 13.3823 111.574 14.8583Z" fill="#304761"/>
<path fill-rule="evenodd" clip-rule="evenodd" d="M16.7045 12.7629C16.7292 10.8932 17.7332 9.16615 19.3648 8.18684C18.3308 6.74516 16.6611 5.86387 14.8592 5.80883C12.9636 5.61457 11.1258 6.91627 10.1598 6.91627C9.17508 6.91627 7.68777 5.82811 6.08619 5.86029C3.97892 5.92675 2.06199 7.06809 1.03676 8.86672C-1.14651 12.5571 0.482015 17.9806 2.5734 20.9636C3.61977 22.4243 4.84267 24.056 6.44281 23.9981C8.00865 23.9347 8.59346 23.0233 10.4836 23.0233C12.3561 23.0233 12.9048 23.9981 14.5374 23.9613C16.2176 23.9347 17.2762 22.4941 18.2859 21.0196C19.0377 19.9788 19.6162 18.8285 20 17.6113C18.0044 16.7873 16.7068 14.8783 16.7045 12.7629Z" fill="#233053"/>
<path fill-rule="evenodd" clip-rule="evenodd" d="M13.6181 3.84707C14.5343 2.77338 14.9856 1.39333 14.8763 0C13.4767 0.143518 12.1838 0.796588 11.2553 1.82908C10.3385 2.84778 9.87398 4.18051 9.96418 5.53373C11.3826 5.54799 12.7293 4.92633 13.6181 3.84707Z" fill="#233053"/>
</g>
<defs>
<clipPath id="clip0_6815_11619">
<rect width="114" height="27.9883" fill="white"/>
</clipPath>
</defs>
</svg>
