<svg width="116" height="31" viewBox="0 0 116 31" fill="none" xmlns="http://www.w3.org/2000/svg">
<path d="M11.1984 3.15137H13.7388C15.2859 2.92345 16.8658 3.12384 18.307 3.73075C20.1151 4.81856 21.4266 6.56983 21.9616 8.61097C22.3405 9.6806 22.3405 9.6806 23.2541 9.30177H23.9672V0.833823H0.056379V2.32686H1.03688C1.46296 2.32391 1.88429 2.41645 2.26992 2.59769C2.65554 2.77894 2.99566 3.04427 3.26529 3.37421C4.17893 4.84496 4.33492 6.49398 4.33492 15.0733C4.33492 24.1875 4.13437 26.4159 3.26529 27.5524C3.05073 27.8446 2.77296 28.0845 2.45269 28.2543C2.13242 28.4241 1.77794 28.5193 1.41571 28.5329C0.056379 28.7781 0.056379 28.7558 0.056379 29.3574C-0.018793 29.5586 -0.018793 29.7802 0.056379 29.9814H15.1427C15.2425 29.7846 15.2946 29.567 15.2946 29.3463C15.2946 29.1256 15.2425 28.908 15.1427 28.7112C14.7773 28.6095 14.4049 28.5351 14.0285 28.4884C13.6213 28.4399 13.2188 28.358 12.8252 28.2432C12.2614 27.8317 11.8148 27.2801 11.5295 26.6431C11.2442 26.006 11.1301 25.3056 11.1984 24.6109C10.9756 23.1402 10.8642 20.4438 10.8642 18.2154V16.455H11.7555C12.8661 16.421 13.9759 16.541 15.0536 16.8115C15.5698 17.1305 16.0093 17.5596 16.3405 18.0681C16.6718 18.5765 16.8868 19.1519 16.97 19.753L17.1706 20.4438H18.5299V10.572H17.282L17.0814 11.5302C16.997 12.1449 16.7696 12.7313 16.4174 13.2422C16.0652 13.753 15.5981 14.1742 15.0536 14.4717C14.5262 14.6286 13.9706 14.6667 13.4268 14.5831H10.8642V12.1764C10.8642 9.6806 10.9979 4.42156 11.087 3.59705L11.1984 3.15137ZM115.488 20.8226C114.435 19.1273 112.792 17.8812 110.875 17.324C109.406 16.8648 108.048 16.106 106.886 15.0956C106.625 14.8429 106.429 14.53 106.317 14.1843C106.204 13.8386 106.178 13.4706 106.24 13.1123C106.242 12.4097 106.522 11.7365 107.02 11.2405C107.357 10.8872 107.784 10.6322 108.255 10.5026C108.726 10.3731 109.224 10.374 109.694 10.5051C110.668 10.7828 111.549 11.3187 112.244 12.0563C112.938 12.7938 113.42 13.7054 113.638 14.6945C113.995 15.6973 114.039 15.6973 114.686 15.4299L115.087 15.2739V9.72517L114.797 9.59147C112.603 8.82095 110.276 8.50257 107.956 8.65553C105.958 8.70616 104.051 9.50084 102.608 10.8839C101.953 11.4965 101.441 12.2447 101.106 13.0762C100.771 13.9076 100.622 14.8022 100.669 15.6973C100.682 17.0658 101.225 18.376 102.184 19.3519C103.245 20.3948 104.546 21.1602 105.973 21.5803C109.427 22.9396 110.429 23.8087 110.429 25.3909C110.444 26.0581 110.232 26.7105 109.827 27.241C109.422 27.7715 108.849 28.1485 108.201 28.3101C107.423 28.481 106.617 28.481 105.839 28.3101C104.82 27.9147 103.911 27.2818 103.186 26.4639C102.461 25.6461 101.942 24.667 101.672 23.6081L101.382 22.8951H100.981C100.789 22.9093 100.601 22.9545 100.424 23.0288H100.201V29.3574H100.58C102.085 29.8583 103.639 30.2018 105.215 30.3825H107.443C108.41 30.4534 109.381 30.3631 110.318 30.1151C111.507 29.8956 112.618 29.3688 113.541 28.587C114.464 27.8051 115.165 26.7954 115.577 25.6583C115.843 25.0231 115.979 24.3413 115.978 23.6527C116.066 22.6827 115.897 21.7066 115.488 20.8226V20.8226ZM94.4963 9.30177C93.161 8.74113 91.7222 8.46916 90.2743 8.50373C88.8265 8.53829 87.4023 8.8786 86.0952 9.50233C84.8666 10.1033 83.7777 10.9552 82.8987 12.0031C82.0197 13.0509 81.3702 14.2715 80.9921 15.5859C80.5101 17.0197 80.3059 18.5324 80.3905 20.0427C80.3745 20.8644 80.4417 21.6857 80.591 22.4939C80.9509 24.4812 81.9103 26.3108 83.3404 27.7369C84.7705 29.163 86.6027 30.1173 88.591 30.4716C89.8858 30.6348 91.1959 30.6348 92.4907 30.4716C93.8343 30.2348 95.1202 29.7432 96.279 29.0232C97.2376 28.4858 98.0489 27.7204 98.6411 26.7948C98.6031 26.6495 98.5362 26.5135 98.4443 26.3948C98.3524 26.2761 98.2374 26.1771 98.1063 26.104C97.852 26.1961 97.6119 26.3236 97.3932 26.4828C96.2848 27.2133 94.976 27.5794 93.6495 27.5301C92.769 27.5897 91.8864 27.4526 91.0654 27.1288C90.2445 26.8051 89.5058 26.3028 88.903 25.6583C88.4367 25.2251 88.0518 24.7119 87.7665 24.143C87.074 22.7576 86.7009 21.2347 86.6746 19.6862V18.8171H99.02V18.3714C99.0472 17.9261 99.0472 17.4796 99.02 17.0343C99.0155 15.4609 98.5947 13.9166 97.8001 12.5585C97.0056 11.2003 95.8657 10.0767 94.4963 9.30177V9.30177ZM88.279 17.0121H86.7192V15.6973C87.2317 12.3324 88.5019 10.3268 90.0618 10.3268C91.6217 10.3268 92.2902 12.3101 92.5799 15.9424V16.9675H91.2428L88.279 17.0121ZM56.2345 8.5664C55.4645 8.53654 54.6991 8.69728 54.0061 9.03436C52.5 9.76579 51.2835 10.9823 50.5521 12.4884L50.2624 13.0232V8.5664H50.151C49.8836 8.5664 41.6385 10.2154 41.3711 10.3268C41.1037 10.4383 41.1928 10.4605 41.1928 10.8617C41.1928 11.2628 41.1928 11.3296 41.3711 11.3519L42.2401 11.5302C42.4835 11.5362 42.7224 11.5974 42.9386 11.7094C43.1548 11.8214 43.3427 11.9811 43.488 12.1764C44.0452 12.9118 44.1566 14.2043 44.1566 19.7084C44.2666 22.1863 44.1623 24.6691 43.8446 27.129C43.7698 27.5 43.5817 27.8385 43.3063 28.098C43.0309 28.3574 42.6817 28.525 42.307 28.5775L41.5493 28.7335H41.2596V29.3574C41.1788 29.5653 41.1788 29.7958 41.2596 30.0037H53.7164V29.3574C53.7597 29.1442 53.7597 28.9244 53.7164 28.7112C52.9664 28.682 52.2206 28.585 51.488 28.4215C51.0891 28.2128 50.7627 27.8882 50.5519 27.4905C50.3411 27.0927 50.2557 26.6404 50.307 26.1931C50.1287 24.9006 50.0396 21.1123 50.0841 18.2154C50.1287 15.3185 50.0841 15.1402 50.3293 14.9396C51.0749 14.3679 51.9977 14.0761 52.9365 14.1151C53.8214 14.1344 54.6903 14.3555 55.4769 14.7614C55.7496 14.9128 56.0421 15.0253 56.346 15.0956C56.346 15.0956 58.5744 9.70289 58.5744 9.45776C58.2892 9.12639 57.9259 8.87134 57.5174 8.7157C57.1088 8.56007 56.6679 8.50875 56.2345 8.5664V8.5664ZM41.2151 17.9257C41.1373 16.3333 40.6801 14.7825 39.8816 13.4026C39.0831 12.0227 37.9664 10.8535 36.6246 9.99258C35.0299 9.1323 33.2557 8.65795 31.4445 8.60764C29.6333 8.55733 27.8356 8.93245 26.1956 9.70289C23.8769 10.9256 22.1262 13.004 21.3154 15.4967C20.4779 18.2876 20.4779 21.2629 21.3154 24.0538C21.7544 25.5791 22.5751 26.9673 23.6998 28.0872C25.1005 29.4541 26.9068 30.3298 28.8474 30.5831C30.0931 30.6872 31.3454 30.6872 32.5911 30.5831C33.0495 30.5133 33.5034 30.4166 33.9505 30.2934C35.7643 29.786 37.3961 28.7725 38.655 27.3716C39.9139 25.9706 40.7478 24.2401 41.0591 22.3825C41.2816 20.9078 41.3339 19.4124 41.2151 17.9257V17.9257ZM31.9449 29.0677C29.7165 29.7363 28.0452 27.5747 27.4881 23.0288C27.2835 20.6488 27.2835 18.2556 27.4881 15.8756C27.9338 12.221 29.0702 10.3714 30.8307 10.3714C31.1859 10.3494 31.5411 10.4128 31.8668 10.5562C32.1925 10.6997 32.479 10.919 32.7026 11.1959C34.1956 12.689 34.931 15.6527 34.931 20.1095C35.1164 22.6319 34.7199 25.163 33.7722 27.5079C33.3537 28.1917 32.7062 28.705 31.9449 28.9563V29.0677V29.0677ZM72.0562 9.01208C71.4274 8.93117 70.7909 8.93117 70.1621 9.01208C68.9551 9.01105 67.7619 9.26944 66.6635 9.76974L65.9727 10.0594V5.22379C66.0934 3.59185 66.0934 1.95322 65.9727 0.321289C65.7053 0.321289 57.1928 1.94803 57.0591 2.01488C56.9933 2.1794 56.9933 2.36289 57.0591 2.52741C57.0591 2.99538 57.0591 2.97309 58.0618 3.19593C58.3434 3.25908 58.6138 3.36425 58.8641 3.50791C59.299 3.91696 59.5886 4.45685 59.6886 5.04551C59.9423 6.74138 60.0244 8.45851 59.9337 10.1709V29.7363L60.5354 29.87C61.4267 30.0705 63.9448 30.4939 64.7693 30.5831C66.4158 30.714 68.07 30.714 69.7164 30.5831C71.5439 30.3964 73.2857 29.7146 74.7544 28.6112C76.223 27.5078 77.3627 26.0245 78.0507 24.3212C78.4608 23.228 78.7449 22.0916 78.8974 20.9341C79.0301 19.3661 78.9777 17.7879 78.7415 16.2321C78.5024 14.4882 77.7327 12.86 76.5368 11.5684C75.3409 10.2769 73.7766 9.38439 72.0562 9.01208V9.01208ZM66.2178 28.6889C66.2178 28.3992 65.995 18.6388 66.0395 14.7391V11.6862L66.6858 11.5302C67.1218 11.4677 67.5645 11.4677 68.0005 11.5302C68.4827 11.4811 68.9678 11.5907 69.3822 11.8422C70.2143 12.4165 70.9054 13.1721 71.4033 14.0522C71.9013 14.9322 72.1931 15.9138 72.2568 16.9229C72.4191 18.5456 72.4191 20.1804 72.2568 21.8031C72.1234 24.1616 71.2147 26.4099 69.6718 28.1987C69.2339 28.6146 68.684 28.8935 68.0897 29.0009C67.6399 29.0791 67.1801 29.0791 66.7303 29.0009C66.3069 29.0009 66.3069 28.8672 66.3069 28.6889H66.2178Z" fill="#141731"/>
</svg>
