<svg width="81" height="47" viewBox="0 0 81 47" fill="none" xmlns="http://www.w3.org/2000/svg">
<path d="M23.0166 0.484375C10.3049 0.484375 0 10.7893 0 23.501C0 36.2128 10.3049 46.5177 23.0166 46.5177C29.8478 46.5177 35.9839 43.5416 40.1992 38.8155C44.4145 43.5416 50.5506 46.5177 57.3818 46.5177C70.0935 46.5177 80.3984 36.2128 80.3984 23.501C80.3984 10.7893 70.0935 0.484375 57.3818 0.484375C50.5506 0.484375 44.4145 3.46043 40.1992 8.18656C35.9839 3.46043 29.8478 0.484375 23.0166 0.484375ZM23.0166 5.51927C32.9477 5.51927 40.9984 13.57 40.9984 23.501C40.9984 33.4321 32.9477 41.4828 23.0166 41.4828C13.0856 41.4828 5.03489 33.4321 5.03489 23.501C5.03489 13.57 13.0856 5.51927 23.0166 5.51927ZM13.2466 14.7624V32.5444H25.0696C30.4602 32.5444 34.7223 29.2158 34.7223 23.6534C34.7223 18.091 30.2604 14.7624 25.0696 14.7624H13.2466ZM45.3265 16.0011H50.6361L53.0262 24.2578L56.0107 16.0011H60.0491L63.0336 24.2952L65.4236 16.0011H70.7332L65.7533 31.7452H61.1929L58.0111 24.063L54.7869 31.7452H50.3065L45.3265 16.0011ZM18.8808 19.9022H24.2379C27.0877 19.9022 28.7283 21.2786 28.7284 23.6933C28.7284 26.0905 27.1865 27.3646 24.3178 27.3646H18.8808V19.9022Z" fill="#141731"/>
</svg>
