<svg id="Layer_1" data-name="Layer 1" xmlns="http://www.w3.org/2000/svg" xmlns:xlink="http://www.w3.org/1999/xlink" viewBox="0 0 370.03 211.01"><defs><style>.cls-1,.cls-8{fill:none;}.cls-2{fill:url(#linear-gradient);}.cls-3{clip-path:url(#clip-path);}.cls-4,.cls-6{fill:#1d1d35;}.cls-5{fill:url(#linear-gradient-2);}.cls-6{opacity:0.3;isolation:isolate;}.cls-10,.cls-11,.cls-7,.cls-9{fill:#fff;}.cls-7{fill-opacity:0.2;}.cls-8{stroke-opacity:0.3;stroke-width:2px;stroke:url(#linear-gradient-3);}.cls-9{font-size:19px;font-family:OrbitBbyBT-Regular, Orbit-B BT;}.cls-10,.cls-11{font-size:11px;}.cls-10{font-family:AvenirNextLTPro-Regular, Avenir Next LT Pro;}.cls-11{font-family:AvenirNext-Bold, Avenir Next;font-weight:700;}</style><linearGradient id="linear-gradient" x1="185" y1="212" x2="185" y2="2" gradientTransform="matrix(1, 0, 0, -1, 0, 212)" gradientUnits="userSpaceOnUse"><stop offset="0" stop-color="#1c1d24"/><stop offset="1" stop-color="#3a5a63"/></linearGradient><clipPath id="clip-path"><rect class="cls-1" x="228" width="142.03" height="210"/></clipPath><linearGradient id="linear-gradient-2" x1="269.67" y1="70.9" x2="257.29" y2="-67.23" gradientTransform="matrix(1, 0, 0, -1, 0, 212)" gradientUnits="userSpaceOnUse"><stop offset="0" stop-color="#1b1b1d"/><stop offset="1" stop-color="#1b1b1d" stop-opacity="0"/></linearGradient><linearGradient id="linear-gradient-3" x1="39.32" y1="260.27" x2="218.76" y2="71.48" gradientTransform="matrix(1, 0, 0, -1, 0, 212)" gradientUnits="userSpaceOnUse"><stop offset="0" stop-color="#fff"/><stop offset="0.56" stop-color="#fff" stop-opacity="0"/></linearGradient></defs><rect class="cls-1" width="370" height="210" rx="20"/><rect class="cls-2" width="370" height="210" rx="20"/><g class="cls-3"><path class="cls-4" d="M299.1,0C259.83,0,228,31.55,228,70.47H299.1Z"/><path class="cls-5" d="M299.1,140.55C259.83,140.55,228,172.1,228,211H299.1Z"/><path class="cls-6" d="M228,70.47c0,38.7,31.84,70.08,71.11,70.08V70.47Z"/><path class="cls-6" d="M370,140.74c-39.28,0-71.12,31.38-71.12,70.08H370Z"/><path class="cls-7" d="M369.81,140.54c0-38.7-31.66-70.08-70.72-70.08v70.08Z"/></g><rect class="cls-8" x="1" y="1" width="368" height="208" rx="19"/><text class="cls-9" transform="translate(29 48.92)">Full Stack Developer</text><text class="cls-10" transform="translate(29 72.41)">ReactJS, NodeJS, MongoDB</text><text class="cls-10" transform="translate(29 137.53)">YOE:</text><text class="cls-11" transform="translate(63.22 137.53)">6 Years</text><text class="cls-10" transform="translate(29 157.51)">Location: </text><text class="cls-11" transform="translate(82.59 157.51)">London</text></svg>