<svg width="106" height="31" viewBox="0 0 106 31" fill="none" xmlns="http://www.w3.org/2000/svg">
<path d="M0 30.5342V0.467773H30.0664V30.5342H0ZM8.42783 23.7899H14.8271C16.7128 23.7899 18.1736 23.4188 19.2092 22.6769C20.2448 21.9504 20.7626 20.8995 20.7626 19.5238C20.7626 18.7355 20.577 18.0477 20.206 17.4603C19.8351 16.8884 19.2864 16.4323 18.5599 16.0923C19.5646 15.7677 20.3298 15.2499 20.8553 14.5389C21.3963 13.8433 21.6667 12.9932 21.6667 11.9884C21.6667 10.9992 21.4041 10.149 20.8785 9.438C20.3684 8.72697 19.6342 8.17832 18.6758 7.79189C17.7175 7.40547 16.566 7.2123 15.2213 7.2123H8.42783V23.7899ZM11.8824 21.1005V16.9734H14.5025C15.399 16.9734 16.0791 17.1588 16.5428 17.5298C17.022 17.9162 17.2616 18.4495 17.2616 19.1296C17.2616 20.4435 16.3419 21.1005 14.5025 21.1005H11.8824ZM11.8824 14.3765V9.90168H14.8965C15.9321 9.90168 16.7283 10.0873 17.2848 10.4583C17.8413 10.8447 18.1195 11.3933 18.1195 12.1044C18.1195 13.6192 17.0606 14.3765 14.943 14.3765H11.8824ZM75.1658 30.5342V0.467773H105.232V30.5342H75.1658ZM91.4338 24.1378C92.3458 24.1378 93.2037 24.0373 94.0075 23.8363C94.8267 23.6508 95.5841 23.3726 96.2797 23.0016V19.7092C95.6459 20.142 94.9581 20.4666 94.2161 20.683C93.4742 20.9149 92.6937 21.0308 91.8745 21.0308C90.7461 21.0308 89.7801 20.8145 88.9763 20.3817C88.188 19.9489 87.5774 19.3228 87.1446 18.5036C86.7273 17.6844 86.5186 16.6874 86.5186 15.5127C86.5186 14.338 86.7195 13.3333 87.1214 12.4986C87.5387 11.6793 88.1338 11.0534 88.9066 10.6206C89.6949 10.1878 90.6455 9.97135 91.7584 9.97135C93.4587 9.97135 95.0278 10.4274 96.4653 11.3394V8.11643C95.7851 7.73 94.9967 7.42869 94.1002 7.2123C93.2037 6.98044 92.2609 6.86454 91.2717 6.86454C89.9578 6.86454 88.7753 7.05771 87.7242 7.44413C86.6731 7.84602 85.7843 8.41797 85.0578 9.15991C84.3314 9.90185 83.7749 10.806 83.3885 11.8725C83.0021 12.9545 82.8089 14.1679 82.8089 15.5127C82.8089 16.8265 83.0099 18.0091 83.4117 19.0602C83.8136 20.1267 84.3931 21.0386 85.1505 21.796C85.9079 22.5534 86.8123 23.1331 87.8634 23.535C88.9299 23.9369 90.12 24.1378 91.4338 24.1378V24.1378ZM37.5829 30.5342V0.467773H67.6493V30.5342H37.5829ZM46.0107 23.7899H52.41C54.2957 23.7899 55.7565 23.4188 56.7921 22.6769C57.8277 21.9504 58.3455 20.8995 58.3455 19.5238C58.3455 18.7355 58.1599 18.0477 57.7889 17.4603C57.418 16.8884 56.8693 16.4323 56.1428 16.0923C57.1475 15.7677 57.9127 15.2499 58.4382 14.5389C58.9792 13.8433 59.2496 12.9932 59.2496 11.9884C59.2496 10.9992 58.987 10.149 58.4614 9.438C57.9513 8.72697 57.2171 8.17832 56.2587 7.79189C55.3004 7.40547 54.1489 7.2123 52.8042 7.2123H46.0107V23.7899ZM49.4653 21.1005V16.9734H52.0854C52.9819 16.9734 53.662 17.1588 54.1257 17.5298C54.6049 17.9162 54.8445 18.4495 54.8445 19.1296C54.8445 20.4435 53.9248 21.1005 52.0854 21.1005H49.4653ZM49.4653 14.3765V9.90168H52.4794C53.5151 9.90168 54.3113 10.0873 54.8677 10.4583C55.4242 10.8447 55.7024 11.3933 55.7024 12.1044C55.7024 13.6192 54.6435 14.3765 52.5259 14.3765H49.4653Z" fill="#141731"/>
</svg>
