<svg width="115" height="27" viewBox="0 0 115 27" fill="none" xmlns="http://www.w3.org/2000/svg">
<path fill-rule="evenodd" clip-rule="evenodd" d="M0.400643 3.80898C0.14829 4.04873 0 4.42003 0 4.90186V22.1032C0 22.585 0.14829 22.9563 0.400643 23.1961L0.464815 23.2521L11.1998 13.6162V13.3889L0.464815 3.75293L0.400643 3.80898Z" fill="#00D7FE"/>
<mask id="mask0_6815_11633" style="mask-type:alpha" maskUnits="userSpaceOnUse" x="11" y="10" width="10" height="7">
<path d="M14.7725 16.8201L11.1953 13.6068V13.3795L14.7742 10.167L19.0946 12.3699C20.3052 12.988 20.3052 13.9983 19.0946 14.6156L14.8549 16.778L14.7725 16.8201Z" fill="white"/>
</mask>
<g mask="url(#mask0_6815_11633)">
<path fill-rule="evenodd" clip-rule="evenodd" d="M14.7725 16.824L11.1953 13.6107V13.3834L14.7742 10.1709L19.0946 12.3738C20.3052 12.9919 20.3052 14.0022 19.0946 14.6195L14.8549 16.7819L14.7725 16.824Z" fill="url(#paint0_linear_6815_11633)"/>
</g>
<mask id="mask1_6815_11633" style="mask-type:alpha" maskUnits="userSpaceOnUse" x="0" y="13" width="15" height="11">
<path d="M14.8493 16.7839L11.1898 13.499L0.390625 23.1926C0.790401 23.5717 1.44947 23.6184 2.19178 23.24L14.8493 16.7839Z" fill="white"/>
</mask>
<g mask="url(#mask1_6815_11633)">
<path fill-rule="evenodd" clip-rule="evenodd" d="M14.8493 16.7839L11.1898 13.499L0.390625 23.1926C0.790401 23.5717 1.44947 23.6184 2.19178 23.24L14.8493 16.7839Z" fill="url(#paint1_linear_6815_11633)"/>
</g>
<mask id="mask2_6815_11633" style="mask-type:alpha" maskUnits="userSpaceOnUse" x="0" y="3" width="15" height="11">
<path d="M14.8493 10.2165L2.19178 3.7604C1.44947 3.38209 0.790401 3.4288 0.390625 3.80788L11.1898 13.5014L14.8493 10.2165Z" fill="white"/>
</mask>
<g mask="url(#mask2_6815_11633)">
<path fill-rule="evenodd" clip-rule="evenodd" d="M14.8493 10.2165L2.19178 3.7604C1.44947 3.38209 0.790401 3.4288 0.390625 3.80788L11.1898 13.5014L14.8493 10.2165Z" fill="url(#paint2_linear_6815_11633)"/>
</g>
<path d="M32.6684 19H34.0544L35.1344 16.138H40.6784L41.6324 19H43.1264L38.7344 6.4H37.5284L32.6684 19ZM38.0684 8.272H38.0864L40.2824 14.914H35.5844L38.0684 8.272ZM45.0403 10.216V23.5H46.2643V18.136C47.0203 18.838 48.0823 19.216 49.0723 19.216C51.6463 19.216 53.5903 17.074 53.5903 14.572C53.5903 12.07 51.6643 10 49.0903 10C48.0103 10 46.9303 10.468 46.2643 11.35V10.216H45.0403ZM46.2643 12.772C46.7683 11.746 47.9743 11.116 49.0543 11.116C50.9803 11.116 52.3303 12.754 52.3303 14.644C52.3303 16.516 50.9623 18.1 49.0543 18.1C48.0463 18.1 46.9123 17.56 46.2643 16.714V12.772ZM56.0618 10.216V23.5H57.2858V18.136C58.0418 18.838 59.1038 19.216 60.0938 19.216C62.6678 19.216 64.6118 17.074 64.6118 14.572C64.6118 12.07 62.6858 10 60.1118 10C59.0318 10 57.9518 10.468 57.2858 11.35V10.216H56.0618ZM57.2858 12.772C57.7898 11.746 58.9958 11.116 60.0758 11.116C62.0018 11.116 63.3518 12.754 63.3518 14.644C63.3518 16.516 61.9838 18.1 60.0758 18.1C59.0678 18.1 57.9338 17.56 57.2858 16.714V12.772ZM78.0993 8.362L78.9813 7.39C77.9193 6.58 76.6773 6.184 75.2373 6.184C73.2573 6.184 71.5473 7.246 71.5473 9.55C71.5473 11.602 73.4013 12.25 75.1293 12.898C76.6593 13.474 78.0993 14.032 78.0993 15.544C78.0993 17.236 76.7133 17.992 75.2733 17.992C74.0313 17.992 73.0773 17.794 71.8353 16.534L70.8273 17.434C72.1233 18.712 73.4733 19.216 75.2553 19.216C77.0553 19.216 79.5213 18.154 79.5213 15.328C79.5213 13.222 77.8833 12.43 76.2453 11.818C74.5893 11.206 72.9153 10.774 72.9153 9.37C72.9153 8.146 73.9053 7.408 75.4533 7.408C76.4433 7.408 77.5593 7.822 78.0993 8.362ZM86.5121 11.332V10.216H83.9561V8.02H82.7321V10.216H81.4901V11.332H82.7321V16.318C82.7321 18.136 83.5781 19.162 85.2881 19.162C85.8101 19.162 86.2961 19 86.6921 18.784L86.3861 17.812C85.9901 17.956 85.6301 18.046 85.3061 18.046C84.4961 18.046 83.9561 17.758 83.9561 16.174V11.332H86.5121ZM92.2345 10C89.6245 10 87.8065 12.052 87.8065 14.608C87.8065 17.164 89.6245 19.216 92.2345 19.216C94.8445 19.216 96.6625 17.164 96.6625 14.608C96.6625 12.052 94.8445 10 92.2345 10ZM95.4025 14.608C95.4025 16.444 94.1965 18.1 92.2345 18.1C90.2725 18.1 89.0665 16.444 89.0665 14.608C89.0665 12.772 90.2725 11.116 92.2345 11.116C94.1965 11.116 95.4025 12.772 95.4025 14.608ZM100.352 10.216H99.1282V19H100.352V13.132C100.982 12.016 101.648 11.26 102.656 11.26C102.998 11.26 103.214 11.296 103.484 11.422L103.646 10.072C103.394 10.018 103.142 10 102.908 10C101.684 10 100.838 10.9 100.352 11.872V10.216ZM112.73 14.914C112.748 14.752 112.784 14.392 112.784 14.104C112.784 11.926 111.146 10 108.878 10C106.484 10 104.576 11.962 104.576 14.554C104.576 17.128 106.142 19.216 109.022 19.216C110.354 19.216 111.884 18.532 112.586 17.218L111.722 16.66C111.092 17.848 110.102 18.172 108.932 18.172C107.024 18.172 105.908 16.606 105.8 14.914H112.73ZM111.578 13.87H105.836C106.088 12.232 107.186 11.044 108.878 11.044C110.372 11.044 111.506 12.394 111.578 13.87Z" fill="#304761"/>
<defs>
<linearGradient id="paint0_linear_6815_11633" x1="18.307" y1="13.4973" x2="11.1953" y2="13.4973" gradientUnits="userSpaceOnUse">
<stop stop-color="#FFBC00"/>
<stop offset="1" stop-color="#FFDA03"/>
</linearGradient>
<linearGradient id="paint1_linear_6815_11633" x1="12.8605" y1="16.5899" x2="4.40347" y2="24.3559" gradientUnits="userSpaceOnUse">
<stop stop-color="#E22652"/>
<stop offset="1" stop-color="#FF3A44"/>
</linearGradient>
<linearGradient id="paint2_linear_6815_11633" x1="2.02586" y1="4.97485" x2="7.6256" y2="10.4603" gradientUnits="userSpaceOnUse">
<stop stop-color="#0ED574"/>
<stop offset="1" stop-color="#07F076"/>
</linearGradient>
</defs>
</svg>
