<svg width="64" height="65" viewBox="0 0 64 65" fill="none" xmlns="http://www.w3.org/2000/svg">
<path d="M28.1036 17.1019H35.1291C38.0362 17.2641 40.8016 18.3887 42.9742 20.2923L43.2377 20.5798C45.1865 22.7068 46.3333 25.4257 46.4868 28.2829V35.1524C46.4868 36.3491 46.9711 37.4969 47.8329 38.3432C48.6948 39.1895 49.8638 39.6649 51.0828 39.6649H59.3084C60.5272 39.6649 61.6962 39.1895 62.5581 38.3432C63.4199 37.4969 63.9042 36.3491 63.9042 35.1524V27.0757C63.9042 25.8788 63.4199 24.7311 62.5581 23.8848C61.6962 23.0385 60.5272 22.5631 59.3084 22.5631H52.3121C49.4024 22.4122 46.6333 21.2861 44.467 19.3726L44.1743 19.1139C42.2317 16.9831 41.0857 14.2665 40.925 11.4108V4.51259C40.925 3.31586 40.4409 2.16801 39.579 1.32174C38.717 0.475469 37.5482 0 36.3292 0L28.1036 0C26.8847 0 25.7158 0.475469 24.8539 1.32174C23.992 2.16801 23.5078 3.31586 23.5078 4.51259V12.5894C23.5078 13.7861 23.992 14.9339 24.8539 15.7801C25.7158 16.6264 26.8847 17.1019 28.1036 17.1019Z" fill="#304761"/>
<path d="M35.9276 46.8903H28.9022C25.9951 46.7281 23.2296 45.6035 21.0571 43.6999L20.7936 43.4124C18.8448 41.2854 17.6979 38.5664 17.5444 35.7093V28.8398C17.5444 27.6431 17.0602 26.4953 16.1983 25.649C15.3364 24.8027 14.1674 24.3272 12.9485 24.3272H4.72287C3.50407 24.3272 2.33506 24.8027 1.47319 25.649C0.611309 26.4953 0.127079 27.6431 0.127079 28.8398V36.9165C0.127079 38.1134 0.611309 39.2611 1.47319 40.1074C2.33506 40.9536 3.50407 41.4291 4.72287 41.4291H11.7191C14.6288 41.58 17.398 42.7061 19.5642 44.6196L19.8569 44.8783C21.7996 47.0091 22.9455 49.7257 23.1062 52.5814V59.4796C23.1062 60.6763 23.5903 61.8242 24.4522 62.6704C25.3142 63.5167 26.4831 63.9922 27.702 63.9922H35.9276C37.1466 63.9922 38.3155 63.5167 39.1773 62.6704C40.0392 61.8242 40.5234 60.6763 40.5234 59.4796V51.4028C40.5234 50.2061 40.0392 49.0583 39.1773 48.2121C38.3155 47.3658 37.1466 46.8903 35.9276 46.8903Z" fill="#304761"/>
<path d="M59.4388 0.078125L51.2882 0.078125C48.7733 0.078125 46.7344 2.02164 46.7344 4.41925V12.1891C46.7344 14.5868 48.7733 16.5304 51.2882 16.5304H59.4388C61.9539 16.5304 63.9928 14.5868 63.9928 12.1891V4.41925C63.9928 2.02164 61.9539 0.078125 59.4388 0.078125Z" fill="#141731"/>
<path d="M4.72333 64H12.5343C14.9445 64 16.8984 62.0123 16.8984 59.5602V51.6137C16.8984 49.1616 14.9445 47.1738 12.5343 47.1738H4.72333C2.31304 47.1738 0.35911 49.1616 0.35911 51.6137V59.5602C0.35911 62.0123 2.31304 64 4.72333 64Z" fill="#141731"/>
<path d="M59.4078 46.696H52.4323C49.5287 46.5115 46.7775 45.3321 44.643 43.3567L43.8583 42.5728C41.9234 40.4239 40.7846 37.6771 40.6322 34.7907V27.8218C40.6245 26.6152 40.1413 25.46 39.2872 24.6067C38.433 23.7534 37.2769 23.2706 36.069 23.2631H29.0935C26.2137 23.142 23.4634 22.0347 21.3043 20.1271L20.5196 19.3431C18.5846 17.1943 17.4459 14.4475 17.2933 11.5611V4.62139C17.2933 3.41229 16.8125 2.25269 15.9569 1.39769C15.1011 0.542816 13.9405 0.0625 12.7302 0.0625L4.56307 0.0625C3.35295 0.0625 2.1922 0.542816 1.33656 1.39769C0.480784 2.25269 0 3.41229 0 4.62139L0 12.7807C0 13.9898 0.480784 15.1494 1.33656 16.0043C2.1922 16.8593 3.35295 17.3396 4.56307 17.3396H11.5095C14.4427 17.4736 17.2378 18.6234 19.4151 20.5917L20.1998 21.3757C22.1287 23.5283 23.2665 26.2728 23.426 29.1575V36.1266C23.4335 37.3332 23.9168 38.4884 24.7709 39.3416C25.6249 40.1949 26.7813 40.6777 27.989 40.6853H34.9645C37.8216 40.864 40.535 41.9994 42.6667 43.9084L43.4514 44.6924C45.3803 46.845 46.5181 49.5897 46.6776 52.4744L46.6776 59.4433C46.6851 60.65 47.1684 61.8051 48.0225 62.6584C48.8765 63.5117 50.0328 63.9943 51.2406 64.002H59.4368C60.6447 63.9943 61.801 63.5117 62.6551 62.6584C63.5092 61.8051 63.9924 60.65 64 59.4433L64 51.2548C63.9923 50.0431 63.5051 48.8835 62.6448 48.0294C61.7844 47.1753 60.6207 46.6959 59.4078 46.696Z" fill="#233053"/>
</svg>
