<svg width="32" height="32" viewBox="0 0 32 32" fill="none" xmlns="http://www.w3.org/2000/svg">
<g clip-path="url(#clip0_6815_11289)">
<path fill-rule="evenodd" clip-rule="evenodd" d="M27.6178 7.50607C28.1378 8.02607 28.1378 8.86608 27.6178 9.38608L25.1778 11.8261L20.1778 6.82607L22.6178 4.38607C22.8669 4.1364 23.2051 3.99609 23.5578 3.99609C23.9105 3.99609 24.2487 4.1364 24.4978 4.38607L27.6178 7.50607ZM4 27.3325V23.2792C4 23.0925 4.06667 22.9325 4.2 22.7992L18.7467 8.25255L23.7467 13.2525L9.18667 27.7992C9.06667 27.9325 8.89333 27.9992 8.72 27.9992H4.66667C4.29333 27.9992 4 27.7059 4 27.3325Z" fill="white"/>
</g>
<defs>
<clipPath id="clip0_6815_11289">
<rect width="32" height="32" fill="white"/>
</clipPath>
</defs>
</svg>
