<svg width="148" height="29" viewBox="0 0 148 29" fill="none" xmlns="http://www.w3.org/2000/svg">
<path d="M0 0.902386H10.8211C12.8822 0.902386 14.4281 1.41767 15.5732 2.27649C16.8328 3.30707 17.5198 4.79568 17.5198 6.62781C17.5198 8.74622 16.661 10.0631 14.9434 10.8646V10.9791C17.2335 11.7234 18.5504 13.7846 18.5504 16.2465C18.5504 18.594 17.6343 20.4261 16.1457 21.5712C14.8861 22.4872 13.283 22.888 11.1073 22.888H0V0.902386ZM9.73322 9.49053C10.8783 9.49053 11.7371 8.86073 11.7371 7.54388C11.7371 6.28429 10.8783 5.65449 9.67597 5.65449H5.95444V9.43327H9.73322V9.49053ZM10.2485 18.0214C11.5654 18.0214 12.5387 17.2199 12.5387 15.7885C12.5387 14.2426 11.5081 13.5556 10.2485 13.5556H6.0117V18.0787H10.2485V18.0214Z" fill="#141731"/>
<path d="M19.5239 0.902344H25.1921V22.9452H19.5239V0.902344Z" fill="#141731"/>
<path d="M26.3371 15.1014C26.3371 10.1203 29.5433 6.79956 34.5245 6.79956C39.5056 6.79956 42.6546 10.1776 42.6546 15.1014C42.6546 20.0825 39.5056 23.4033 34.5245 23.4033C29.5433 23.4033 26.3371 20.0825 26.3371 15.1014ZM36.9864 15.1014C36.9864 12.3532 36.1276 10.6356 34.41 10.6356C32.6923 10.6356 31.8908 12.3532 31.8908 15.1014C31.8908 17.8496 32.6923 19.6245 34.41 19.6245C36.1276 19.5673 36.9864 17.8496 36.9864 15.1014Z" fill="#141731"/>
<path d="M43.2844 15.1014C43.2844 10.1203 46.4907 6.79956 51.4718 6.79956C56.4529 6.79956 59.5446 10.1203 59.5446 15.1014C59.5446 20.0825 56.3956 23.4033 51.4145 23.4033C46.4907 23.4033 43.2844 20.0825 43.2844 15.1014ZM53.9337 15.1014C53.9337 12.3532 53.0749 10.6356 51.3573 10.6356C49.6396 10.6356 48.8381 12.3532 48.8381 15.1014C48.8381 17.8496 49.6396 19.6245 51.3573 19.6245C53.0749 19.5673 53.9337 17.8496 53.9337 15.1014Z" fill="#141731"/>
<path d="M60.6897 7.20028H65.957V9.54771H66.0715C67.1021 7.71557 68.5335 6.74225 70.8237 6.74225C72.8276 6.74225 74.3162 7.71557 75.0605 9.4332H75.175C76.4346 7.37205 78.095 6.74225 80.0416 6.74225C83.7059 6.74225 85.2517 9.4332 85.2517 13.0402V22.888H79.7553V14.0135C79.7553 12.4104 79.24 11.3798 77.8659 11.3798C76.4918 11.3798 75.8048 12.6394 75.8048 14.3571V22.888H70.3084V14.0135C70.3084 12.4104 69.7931 11.3798 68.419 11.3798C67.0449 11.3798 66.3578 12.6394 66.3578 14.3571V22.888H60.6897V7.20028Z" fill="#141731"/>
<path d="M92.1796 20.8268H92.1223V22.888H86.855V0.902344H92.3514V8.80343H92.4659C93.4965 7.42933 94.9278 6.68502 96.9317 6.68502C100.882 6.68502 103.172 10.2348 103.172 14.9869C103.172 20.3115 100.71 23.4033 96.5882 23.4033C94.8706 23.4033 93.0957 22.6017 92.1796 20.8268ZM97.5042 14.9296C97.5042 12.4105 96.5882 10.7501 94.9278 10.7501C93.2102 10.7501 92.1796 12.4105 92.1796 14.9296C92.1796 17.4488 93.2674 19.1092 94.9278 19.1092C96.5882 19.1092 97.5042 17.5061 97.5042 14.9296Z" fill="#141731"/>
<path d="M103.802 15.0441C103.802 10.1203 107.066 6.74225 111.76 6.74225C114.108 6.74225 115.883 7.48656 117.257 8.8034C119.089 10.5783 119.89 13.3265 119.833 16.5327H109.298C109.527 18.4794 110.443 19.51 112.104 19.51C113.077 19.51 113.936 19.0519 114.28 18.0213H119.604C118.688 21.6284 115.883 23.4032 111.932 23.4032C107.065 23.346 103.802 20.0252 103.802 15.0441ZM109.298 13.3837H114.337C114.222 11.4944 113.192 10.521 111.875 10.521C110.329 10.4638 109.47 11.5516 109.298 13.3837Z" fill="#141731"/>
<path d="M126.074 9.89128H126.189C127.334 7.71561 128.822 6.8568 130.712 6.8568C131.17 6.8568 131.456 6.91405 131.628 7.02856V11.8379H131.513C128.25 11.2654 126.36 12.8112 126.36 16.361V22.9452H120.807V7.20033H126.074V9.89128Z" fill="#141731"/>
<path d="M132.2 22.9452H137.525C137.754 23.6323 138.441 24.2621 139.758 24.2621C141.533 24.2621 142.162 23.1742 142.162 21.5139V20.3688H142.048C141.189 21.3994 139.987 22.1437 138.269 22.1437C134.891 22.1437 131.914 19.6245 131.914 14.7006C131.914 10.1775 134.319 6.68501 137.983 6.68501C140.101 6.68501 141.361 7.54382 142.22 8.86067H142.334V7.14304H147.602V20.7696C147.602 23.2887 146.743 25.2354 145.426 26.3805C144.052 27.5828 142.105 28.0981 139.872 28.0981C135.635 28.1554 132.715 26.4377 132.2 22.9452ZM142.391 14.4716C142.391 12.5249 141.475 10.9218 139.872 10.9218C138.326 10.9218 137.353 12.2959 137.353 14.4716C137.353 16.59 138.326 18.0786 139.872 18.0786C141.418 18.0786 142.391 16.5327 142.391 14.4716Z" fill="#141731"/>
</svg>
