<svg width="32" height="32" viewBox="0 0 32 32" fill="none" xmlns="http://www.w3.org/2000/svg">
<rect x="3" y="7" width="26" height="18" rx="2" fill="#FF8049"/>
<path d="M3 8.5C3 7.67157 3.67157 7 4.5 7H27.5C28.3284 7 29 7.67157 29 8.5V23.5C29 24.3284 28.3284 25 27.5 25H4.5C3.67157 25 3 24.3284 3 23.5V8.5ZM16 11.5C17.1493 11.5 18.2515 11.9741 19.0641 12.818C19.8768 13.6619 20.3333 14.8065 20.3333 16C20.3333 17.1935 19.8768 18.3381 19.0641 19.182C18.2515 20.0259 17.1493 20.5 16 20.5C14.8507 20.5 13.7485 20.0259 12.9359 19.182C12.1232 18.3381 11.6667 17.1935 11.6667 16C11.6667 14.8065 12.1232 13.6619 12.9359 12.818C13.7485 11.9741 14.8507 11.5 16 11.5ZM8.77778 10C8.77778 10.7956 8.47341 11.5587 7.93164 12.1213C7.38987 12.6839 6.65507 13 5.88889 13V19C6.65507 19 7.38987 19.3161 7.93164 19.8787C8.47341 20.4413 8.77778 21.2044 8.77778 22H23.2222C23.2222 21.2044 23.5266 20.4413 24.0684 19.8787C24.6101 19.3161 25.3449 19 26.1111 19V13C25.3449 13 24.6101 12.6839 24.0684 12.1213C23.5266 11.5587 23.2222 10.7956 23.2222 10H8.77778Z" fill="white"/>
</svg>
