<svg width="25" height="18" viewBox="0 0 25 18" fill="none" xmlns="http://www.w3.org/2000/svg">
<path d="M2.27778 1H22.7222C23.4279 1 24 1.51167 24 2.14286V15.8571C24 16.4883 23.4279 17 22.7222 17H2.27778C1.57208 17 1 16.4883 1 15.8571V2.14286C1 1.51167 1.57208 1 2.27778 1Z" fill="white" stroke="white" stroke-width="2" stroke-linecap="round" stroke-linejoin="round"/>
<path d="M17.4219 12.3281C17.9742 12.3281 18.4219 12.7758 18.4219 13.3281C18.4219 13.8804 17.9742 14.3281 17.4219 14.3281V12.3281ZM13.0885 14.3281C12.5363 14.3281 12.0885 13.8804 12.0885 13.3281C12.0885 12.7758 12.5363 12.3281 13.0885 12.3281V14.3281ZM17.4219 14.3281H13.0885V12.3281H17.4219V14.3281Z" fill="#2B7270"/>
<rect y="4" width="25" height="3" fill="#2B7270"/>
</svg>
