<svg width="114" height="32" viewBox="0 0 114 32" fill="none" xmlns="http://www.w3.org/2000/svg">
<path fill-rule="evenodd" clip-rule="evenodd" d="M24.5777 23.3388H27.8474C28.4159 23.3388 28.9615 23.5787 29.3647 24.0061C29.768 24.4336 29.9964 25.014 30 25.6204V29.7185C29.9965 30.3224 29.7699 30.9005 29.3696 31.3276C28.9692 31.7546 28.4272 31.9962 27.861 32H24.019C23.4529 31.9962 22.9109 31.7546 22.5105 31.3276C22.1102 30.9005 21.8837 30.3224 21.8801 29.7185V26.2307C21.8053 24.787 21.272 23.4134 20.3679 22.3361L20 21.9437C19.0008 20.9883 17.7289 20.42 16.3896 20.3306H13.1199C12.5537 20.3268 12.0117 20.0852 11.6113 19.6581C11.211 19.2311 10.9845 18.653 10.9809 18.0491V14.5613C10.9062 13.1176 10.3728 11.744 9.46867 10.6667L9.10084 10.2743C8.08022 9.28922 6.77002 8.71379 5.3951 8.64672H2.13894C1.57169 8.64672 1.02759 8.40634 0.62651 7.97843C0.225367 7.55059 0 6.97024 0 6.36512V2.2816C0 1.67648 0.225367 1.09613 0.62651 0.668225C1.02759 0.240385 1.57169 0 2.13894 0H5.96731C6.53461 0 7.07865 0.240385 7.4798 0.668225C7.88088 1.09613 8.10625 1.67648 8.10625 2.2816V5.75475C8.17776 7.1993 8.71151 8.57402 9.61855 9.64941L9.98639 10.0418C10.9985 10.9965 12.2877 11.5507 13.6376 11.6113H16.9073C17.4735 11.615 18.0155 11.8566 18.4159 12.2837C18.8162 12.7108 19.0427 13.2889 19.0463 13.8928V17.3805C19.1178 18.8251 19.6516 20.1998 20.5586 21.2753L20.9264 21.6676C21.9269 22.6562 23.2166 23.2465 24.5777 23.3388ZM12.5674 9.19417H15.8682C17.2341 9.27533 18.5334 9.83782 19.5541 10.79L19.6779 10.9338C20.5935 11.9977 21.1324 13.3577 21.2045 14.7868V18.2228C21.2045 18.8214 21.432 19.3956 21.8369 19.8189C22.2419 20.2422 22.7911 20.48 23.3638 20.48H27.2285C27.8011 20.48 28.3504 20.2422 28.7553 19.8189C29.1602 19.3956 29.3878 18.8214 29.3878 18.2228V14.183C29.3878 13.5843 29.1602 13.0102 28.7553 12.5869C28.3504 12.1636 27.8011 11.9258 27.2285 11.9258H23.9414C22.5743 11.8504 21.2733 11.2871 20.2555 10.33L20.118 10.2006C19.2053 9.13478 18.6669 7.77593 18.5914 6.34758V2.89715C18.5914 2.29856 18.3639 1.72442 17.959 1.30112C17.554 0.877825 17.0048 0.64 16.4321 0.64H12.5674C11.9947 0.64 11.4456 0.877825 11.0406 1.30112C10.6357 1.72442 10.4082 2.29856 10.4082 2.89715V6.93709C10.4082 7.53568 10.6357 8.10976 11.0406 8.53306C11.4456 8.95635 11.9947 9.19417 12.5674 9.19417ZM27.2876 0.64H23.5287C22.3689 0.64 21.4286 1.62285 21.4286 2.83533V6.76461C21.4286 7.97709 22.3689 8.96 23.5287 8.96H27.2876C28.4475 8.96 29.3878 7.97709 29.3878 6.76461V2.83533C29.3878 1.62285 28.4475 0.64 27.2876 0.64ZM6.30973 23.04H2.26169C1.01259 23.04 0 24.0229 0 25.2354V29.1647C0 30.3772 1.01259 31.36 2.26169 31.36H6.30973C7.55884 31.36 8.57143 30.3772 8.57143 29.1647V25.2354C8.57143 24.0229 7.55884 23.04 6.30973 23.04ZM13.5332 22.8058H16.8203C17.393 22.8058 17.9422 23.0436 18.3471 23.4669C18.7521 23.8902 18.9796 24.4643 18.9796 25.0629V29.1028C18.9796 29.7014 18.7521 30.2756 18.3471 30.6989C17.9422 31.1222 17.393 31.3599 16.8203 31.3599H12.9694C12.6847 31.3619 12.4024 31.3048 12.1389 31.1923C11.8753 31.0797 11.6356 30.9137 11.4337 30.7039C11.2317 30.4941 11.0714 30.2447 10.962 29.9699C10.8527 29.6951 10.7963 29.4004 10.7963 29.1028V25.6668C10.7242 24.2377 10.1854 22.8777 9.26976 21.8138L9.14596 21.67C8.12522 20.7178 6.82592 20.1553 5.46006 20.0742H2.15926C1.58657 20.0742 1.03739 19.8364 0.632447 19.4131C0.227508 18.9898 0 18.4157 0 17.817V13.7772C0 13.1785 0.227508 12.6044 0.632447 12.1811C1.03739 11.7578 1.58657 11.52 2.15926 11.52H6.09269C6.64867 11.5385 7.17637 11.7805 7.56582 12.1956C7.95527 12.6108 8.17641 13.167 8.1832 13.7484V17.1988C8.25251 18.6372 8.79129 20.0072 9.70984 21.0806L9.84735 21.21C10.8651 22.1671 12.1662 22.7303 13.5332 22.8058ZM52.6214 24C57.6299 24 58.7454 21.5152 58.7454 19.4179C58.7454 15.985 55.761 15.3869 53.3451 14.9028C51.7021 14.5735 50.322 14.2969 50.322 13.2173C50.322 12.6018 50.7545 11.9179 52.462 11.9179C54.5109 11.9179 54.8752 12.921 54.9435 14.152H58.586C58.5177 11.1884 57.2201 9 52.6214 9C47.9999 9 46.6567 11.1884 46.6567 13.4225C46.6567 16.6753 49.4982 17.235 51.8981 17.7077C53.6526 18.0532 55.1711 18.3523 55.1711 19.6231C55.1711 20.307 54.7158 21.0821 52.8262 21.0821C50.709 21.0821 50.1399 20.1018 50.0716 18.6201H46.4062C46.4062 21.9711 48.0909 24 52.6214 24ZM62.3392 23.7948H66.0273V9.20517H62.3392V23.7948ZM80.4168 21.6976C79.5745 23.1793 77.9581 24 76.1368 24C70.8551 24 69.5574 20.3754 69.5574 16.5C69.5574 12.6246 70.764 9 76.3872 9C81.2819 9 83.0349 11.3708 83.0349 14.1292H79.2785C79.0964 12.807 78.5045 12.0319 76.3872 12.0319C73.7008 12.0319 73.2911 14.0152 73.2911 16.5C73.2911 19.0076 73.7008 20.9681 76.3872 20.9681C78.1857 20.9681 79.3013 19.9422 79.3468 18.2097H75.9091V15.3602H83.0576V23.7948H81.373L80.4168 21.6976ZM86.9593 23.7948H90.6474V17.845H95.8381V23.7948H99.5261V9.20517H95.8381V14.8815H90.6474V9.20517H86.9593V23.7948ZM109.741 23.7948H106.098V12.2143H102.433V9.20517H113.406V12.2143H109.741V23.7948Z" fill="white"/>
</svg>
