<svg width="400" height="400" viewBox="0 0 400 400" fill="none" xmlns="http://www.w3.org/2000/svg">
<g clip-path="url(#clip0_6815_10579)">
<rect width="400" height="400" rx="30" fill="#D9D9D9"/>
<rect width="400" height="400" rx="30" fill="url(#paint0_linear_6815_10579)"/>
<rect width="400" height="400" rx="30" fill="#1F2A6A" fill-opacity="0.2" style="mix-blend-mode:multiply"/>
<rect width="400" height="400" rx="30" fill="url(#paint1_linear_6815_10579)" fill-opacity="0.8"/>
<rect width="400" height="400" rx="30" fill="url(#paint2_linear_6815_10579)"/>
<rect width="400" height="400" rx="30" fill="url(#paint3_linear_6815_10579)"/>
<rect width="400" height="400" rx="30" fill="#FF8049"/>
<g clip-path="url(#clip1_6815_10579)">
<rect x="64" y="64" width="272" height="368" rx="20" fill="url(#paint4_linear_6815_10579)"/>
<path d="M92.4922 119.5H91.3672V103.75C91.3672 103.375 90.9922 103 90.6172 103H89.8672C89.4453 103 89.1172 103.375 89.1172 103.75V119.5H87.9922C87.5703 119.5 87.2422 119.875 87.2422 120.25V121.75C87.2422 122.172 87.5703 122.5 87.9922 122.5H89.1172V126.25C89.1172 126.672 89.4453 127 89.8672 127H90.6172C90.9922 127 91.3672 126.672 91.3672 126.25V122.5H92.4922C92.8672 122.5 93.2422 122.172 93.2422 121.75V120.25C93.2422 119.875 92.8672 119.5 92.4922 119.5ZM84.9922 107.5H83.8672V103.75C83.8672 103.375 83.4922 103 83.1172 103H82.3672C81.9453 103 81.6172 103.375 81.6172 103.75V107.5H80.4922C80.0703 107.5 79.7422 107.875 79.7422 108.25V109.75C79.7422 110.172 80.0703 110.5 80.4922 110.5H81.6172V126.25C81.6172 126.672 81.9453 127 82.3672 127H83.1172C83.4922 127 83.8672 126.672 83.8672 126.25V110.5H84.9922C85.3672 110.5 85.7422 110.172 85.7422 109.75V108.25C85.7422 107.875 85.3672 107.5 84.9922 107.5ZM99.9922 113.5H98.8672V103.75C98.8672 103.375 98.4922 103 98.1172 103H97.3672C96.9453 103 96.6172 103.375 96.6172 103.75V113.5H95.4922C95.0703 113.5 94.7422 113.875 94.7422 114.25V115.75C94.7422 116.172 95.0703 116.5 95.4922 116.5H96.6172V126.25C96.6172 126.672 96.9453 127 97.3672 127H98.1172C98.4922 127 98.8672 126.672 98.8672 126.25V116.5H99.9922C100.367 116.5 100.742 116.172 100.742 115.75V114.25C100.742 113.875 100.367 113.5 99.9922 113.5Z" fill="#141731"/>
<path d="M161.84 142.457H164.331V149.695H165.656V142.457H168.146V141.243H161.84V142.457ZM170.899 148.591C169.955 148.591 169.17 147.892 169.17 146.812C169.17 145.77 169.955 145.083 170.899 145.083C171.856 145.083 172.641 145.77 172.641 146.812C172.641 147.892 171.856 148.591 170.899 148.591ZM170.899 149.818C172.531 149.818 173.905 148.628 173.905 146.812C173.905 144.997 172.531 143.844 170.899 143.844C169.28 143.844 167.918 144.997 167.918 146.812C167.918 148.628 169.28 149.818 170.899 149.818ZM177.024 141.795H175.761V143.966H174.73V145.009H175.761V149.695H177.024V145.009H178.239V143.966H177.024V141.795ZM183.81 149.695H185.061V143.966H183.81V144.776C183.417 144.126 182.57 143.844 181.883 143.844C180.35 143.844 178.976 144.997 178.976 146.825C178.976 148.653 180.35 149.818 181.883 149.818C182.62 149.818 183.417 149.499 183.81 148.873V149.695ZM180.276 146.812C180.276 145.757 181.086 145.07 182.031 145.07C182.889 145.07 183.797 145.696 183.797 146.812C183.797 147.941 182.963 148.591 182.031 148.591C181.086 148.591 180.276 147.867 180.276 146.812ZM186.832 149.695H188.095V140.85H186.832V149.695ZM198.78 143.476C198.78 142.089 197.872 141.243 196.437 141.243H193.198V149.695H196.695C198.302 149.695 199.234 148.554 199.234 147.217C199.234 146.408 198.67 145.426 197.688 145.193C198.51 144.862 198.78 144.138 198.78 143.476ZM194.511 144.715V142.433H196.302C197.001 142.433 197.431 142.838 197.431 143.525C197.431 144.163 197.075 144.715 196.388 144.715H194.511ZM196.596 145.831C197.406 145.831 197.872 146.579 197.872 147.205C197.872 147.855 197.418 148.505 196.633 148.505H194.511V145.831H196.596ZM205.158 149.695H206.409V143.966H205.158V144.776C204.766 144.126 203.919 143.844 203.232 143.844C201.699 143.844 200.325 144.997 200.325 146.825C200.325 148.653 201.699 149.818 203.232 149.818C203.968 149.818 204.766 149.499 205.158 148.873V149.695ZM201.625 146.812C201.625 145.757 202.435 145.07 203.379 145.07C204.238 145.07 205.146 145.696 205.146 146.812C205.146 147.941 204.312 148.591 203.379 148.591C202.435 148.591 201.625 147.867 201.625 146.812ZM208.18 149.695H209.444V140.85H208.18V149.695ZM215.677 149.695H216.928V143.966H215.677V144.776C215.284 144.126 214.438 143.844 213.751 143.844C212.217 143.844 210.843 144.997 210.843 146.825C210.843 148.653 212.217 149.818 213.751 149.818C214.487 149.818 215.284 149.499 215.677 148.873V149.695ZM212.144 146.812C212.144 145.757 212.953 145.07 213.898 145.07C214.757 145.07 215.664 145.696 215.664 146.812C215.664 147.941 214.83 148.591 213.898 148.591C212.953 148.591 212.144 147.867 212.144 146.812ZM219.962 146.616C219.962 145.488 220.686 145.083 221.434 145.083C222.171 145.083 222.637 145.586 222.637 146.506V149.695H223.9V146.359C223.9 144.727 223.103 143.844 221.717 143.844C221.091 143.844 220.294 144.175 219.962 144.825V143.966H218.699V149.695H219.962V146.616ZM225.243 146.812C225.243 148.628 226.654 149.818 228.298 149.818C229.23 149.818 230.04 149.45 230.58 148.812L229.586 148.039C229.279 148.395 228.801 148.603 228.298 148.603C227.341 148.603 226.495 147.88 226.495 146.812C226.495 145.745 227.341 145.07 228.298 145.07C228.801 145.07 229.279 145.267 229.586 145.622L230.567 144.837C230.028 144.199 229.218 143.844 228.298 143.844C226.654 143.844 225.243 144.997 225.243 146.812ZM237.24 146.812C237.24 144.997 235.989 143.844 234.369 143.844C232.75 143.844 231.425 144.997 231.425 146.812C231.425 148.628 232.75 149.818 234.369 149.818C235.437 149.818 236.528 149.364 237.019 148.346L235.989 147.892C235.694 148.419 235.069 148.714 234.431 148.714C233.498 148.714 232.811 148.162 232.676 147.279H237.228C237.24 147.144 237.24 146.947 237.24 146.812ZM232.676 146.359C232.811 145.475 233.486 144.948 234.369 144.948C235.24 144.948 235.866 145.463 236.001 146.359H232.676Z" fill="#141731"/>
<g opacity="0.1" filter="url(#filter0_f_6815_10579)">
<rect x="167.594" y="220.492" width="64.7459" height="27.2614" rx="13.6307" fill="#294058"/>
</g>
<rect x="158.742" y="215.031" width="82.4658" height="27.2614" rx="13.6307" fill="white"/>
<path d="M178.483 232.156V225.582H177.5V232.156H178.483ZM184.055 230.334L181.212 225.582H180.258V232.156H181.241V227.366L184.113 232.156H185.038V225.582H184.055V230.334ZM189.709 232.271C190.749 232.271 191.655 231.813 192.237 231.088L191.512 230.506C191.092 231.021 190.444 231.355 189.718 231.355C188.373 231.355 187.352 230.229 187.352 228.884C187.352 227.529 188.383 226.384 189.718 226.384C190.444 226.384 191.092 226.718 191.512 227.233L192.237 226.651C191.655 225.926 190.749 225.468 189.709 225.468C187.848 225.468 186.369 227.023 186.369 228.884C186.369 230.744 187.848 232.271 189.709 232.271ZM196.203 232.271C198.083 232.271 199.543 230.744 199.543 228.884C199.543 227.013 198.083 225.468 196.203 225.468C194.333 225.468 192.883 227.013 192.883 228.884C192.883 230.744 194.333 232.271 196.203 232.271ZM196.203 231.355C194.867 231.355 193.865 230.229 193.865 228.884C193.865 227.529 194.867 226.384 196.203 226.384C197.548 226.384 198.56 227.529 198.56 228.884C198.56 230.229 197.548 231.355 196.203 231.355ZM207.577 225.582H206.699L204.437 230.315L202.176 225.582H201.298L200.497 232.156H201.47L202.052 227.385L204.027 231.431H204.867L206.823 227.385L207.405 232.156H208.378L207.577 225.582ZM210.75 229.38H213.336V228.473H210.75V226.479H213.717V225.582H209.777V232.156H213.803V231.259H210.75V229.38Z" fill="#141731"/>
<path d="M225.282 230.93C225.416 231.063 225.631 231.063 225.764 230.93L227.933 228.762C228.066 228.629 228.066 228.413 227.933 228.28C227.8 228.147 227.584 228.147 227.451 228.28L225.523 230.207L223.596 228.28C223.463 228.147 223.247 228.147 223.114 228.28C222.981 228.413 222.981 228.629 223.114 228.762L225.282 230.93ZM225.183 230.008L225.183 230.689L225.864 230.689L225.864 230.008L225.183 230.008Z" fill="#141731"/>
<g opacity="0.5">
<path d="M87.305 279.926H88.2592V279.344H87.305V274.936H86.8375L83.3548 279.926H86.6753V281.281H87.305V279.926ZM84.5094 279.344L86.6753 276.196V279.344H84.5094ZM90.9206 277.999L93.4778 274.707H92.7335L90.2527 277.904V274.707H89.623V281.281H90.2527V278.19L93.182 281.281H94.0312L90.9206 277.999Z" fill="#141731"/>
<path d="M87.305 279.926V279.828H87.2063V279.926H87.305ZM88.2592 279.926V280.025H88.3579V279.926H88.2592ZM88.2592 279.344H88.3579V279.246H88.2592V279.344ZM87.305 279.344H87.2063V279.443H87.305V279.344ZM87.305 274.936H87.4037V274.837H87.305V274.936ZM86.8375 274.936V274.837H86.786L86.7565 274.88L86.8375 274.936ZM83.3548 279.926L83.2739 279.87L83.1656 280.025H83.3548V279.926ZM86.6753 279.926H86.774V279.828H86.6753V279.926ZM86.6753 281.281H86.5766V281.38H86.6753V281.281ZM87.305 281.281V281.38H87.4037V281.281H87.305ZM84.5094 279.344L84.428 279.288L84.3216 279.443H84.5094V279.344ZM86.6753 276.196H86.774V275.878L86.5939 276.14L86.6753 276.196ZM86.6753 279.344V279.443H86.774V279.344H86.6753ZM87.305 280.025H88.2592V279.828H87.305V280.025ZM88.3579 279.926V279.344H88.1605V279.926H88.3579ZM88.2592 279.246H87.305V279.443H88.2592V279.246ZM87.4037 279.344V274.936H87.2063V279.344H87.4037ZM87.305 274.837H86.8375V275.035H87.305V274.837ZM86.7565 274.88L83.2739 279.87L83.4358 279.983L86.9184 274.993L86.7565 274.88ZM83.3548 280.025H86.6753V279.828H83.3548V280.025ZM86.5766 279.926V281.281H86.774V279.926H86.5766ZM86.6753 281.38H87.305V281.183H86.6753V281.38ZM87.4037 281.281V279.926H87.2063V281.281H87.4037ZM84.5907 279.4L86.7566 276.252L86.5939 276.14L84.428 279.288L84.5907 279.4ZM86.5766 276.196V279.344H86.774V276.196H86.5766ZM86.6753 279.246H84.5094V279.443H86.6753V279.246ZM90.9206 277.999L90.8427 277.938L90.7907 278.005L90.849 278.067L90.9206 277.999ZM93.4778 274.707L93.5557 274.768L93.6794 274.608H93.4778V274.707ZM92.7335 274.707V274.608H92.6852L92.6555 274.647L92.7335 274.707ZM90.2527 277.904H90.154V278.192L90.3307 277.964L90.2527 277.904ZM90.2527 274.707H90.3514V274.608H90.2527V274.707ZM89.623 274.707V274.608H89.5243V274.707H89.623ZM89.623 281.281H89.5243V281.38H89.623V281.281ZM90.2527 281.281V281.38H90.3514V281.281H90.2527ZM90.2527 278.19L90.3244 278.122L90.154 277.942V278.19H90.2527ZM93.182 281.281L93.1103 281.349L93.1395 281.38H93.182V281.281ZM94.0312 281.281V281.38H94.2607L94.1028 281.213L94.0312 281.281ZM90.9986 278.06L93.5557 274.768L93.3998 274.647L90.8427 277.938L90.9986 278.06ZM93.4778 274.608H92.7335V274.806H93.4778V274.608ZM92.6555 274.647L90.1748 277.843L90.3307 277.964L92.8115 274.768L92.6555 274.647ZM90.3514 277.904V274.707H90.154V277.904H90.3514ZM90.2527 274.608H89.623V274.806H90.2527V274.608ZM89.5243 274.707V281.281H89.7217V274.707H89.5243ZM89.623 281.38H90.2527V281.183H89.623V281.38ZM90.3514 281.281V278.19H90.154V281.281H90.3514ZM90.1811 278.258L93.1103 281.349L93.2536 281.213L90.3244 278.122L90.1811 278.258ZM93.182 281.38H94.0312V281.183H93.182V281.38ZM94.1028 281.213L90.9923 277.931L90.849 278.067L93.9595 281.349L94.1028 281.213Z" fill="#141731"/>
</g>
<g opacity="0.5">
<path d="M86.4463 324.294C86.9615 324.056 87.2859 323.55 87.2859 322.958C87.2859 321.976 86.5608 321.317 85.4635 321.317C84.767 321.317 84.0991 321.68 83.7747 322.214L84.2231 322.558C84.4616 322.166 84.9483 321.899 85.454 321.899C86.1887 321.899 86.6753 322.329 86.6753 322.968C86.6753 323.607 86.2173 324.046 85.5303 324.046H84.9196V324.58H85.5685C86.3795 324.58 86.9997 325.115 86.9997 325.907C86.9997 326.67 86.3127 327.204 85.3967 327.204C84.7861 327.204 84.2231 326.842 83.9464 326.26L83.4312 326.536C83.7842 327.3 84.5475 327.786 85.4253 327.786C86.6944 327.786 87.6103 327.014 87.6103 325.888C87.6103 325.096 87.1237 324.485 86.4463 324.294ZM90.2846 324.466L92.9753 321.098H92.1929L89.7312 324.189V321.098H89.111V327.672H89.7312V324.781L92.6032 327.672H93.4523L90.2846 324.466Z" fill="#141731"/>
<path d="M86.4463 324.294L86.4048 324.205L86.1625 324.317L86.4195 324.389L86.4463 324.294ZM83.7747 322.214L83.6903 322.163L83.6443 322.239L83.7146 322.293L83.7747 322.214ZM84.2231 322.558L84.1631 322.636L84.2502 322.703L84.3074 322.609L84.2231 322.558ZM84.9196 324.046V323.947H84.8209V324.046H84.9196ZM84.9196 324.58H84.8209V324.679H84.9196V324.58ZM83.9464 326.26L84.0355 326.217L83.991 326.124L83.8997 326.173L83.9464 326.26ZM83.4312 326.536L83.3845 326.449L83.3025 326.493L83.3416 326.578L83.4312 326.536ZM86.4877 324.384C87.0386 324.129 87.3846 323.588 87.3846 322.958H87.1872C87.1872 323.512 86.8845 323.983 86.4048 324.205L86.4877 324.384ZM87.3846 322.958C87.3846 322.441 87.1932 322.004 86.8523 321.696C86.5124 321.389 86.0317 321.219 85.4635 321.219V321.416C85.9926 321.416 86.4231 321.574 86.7201 321.843C87.0161 322.11 87.1872 322.493 87.1872 322.958H87.3846ZM85.4635 321.219C84.7358 321.219 84.0343 321.596 83.6903 322.163L83.859 322.265C84.1639 321.763 84.7981 321.416 85.4635 321.416V321.219ZM83.7146 322.293L84.1631 322.636L84.2831 322.479L83.8347 322.136L83.7146 322.293ZM84.3074 322.609C84.5267 322.249 84.98 321.998 85.454 321.998V321.801C84.9165 321.801 84.3966 322.083 84.1388 322.506L84.3074 322.609ZM85.454 321.998C85.8025 321.998 86.083 322.1 86.275 322.268C86.4659 322.435 86.5766 322.675 86.5766 322.968H86.774C86.774 322.622 86.6414 322.327 86.4052 322.12C86.1702 321.914 85.8402 321.801 85.454 321.801V321.998ZM86.5766 322.968C86.5766 323.263 86.4714 323.506 86.2925 323.675C86.1133 323.845 85.8526 323.947 85.5303 323.947V324.145C85.895 324.145 86.2068 324.028 86.4283 323.818C86.6501 323.608 86.774 323.312 86.774 322.968H86.5766ZM85.5303 323.947H84.9196V324.145H85.5303V323.947ZM84.8209 324.046V324.58H85.0183V324.046H84.8209ZM84.9196 324.679H85.5685V324.482H84.9196V324.679ZM85.5685 324.679C86.3343 324.679 86.901 325.178 86.901 325.907H87.0984C87.0984 325.051 86.4247 324.482 85.5685 324.482V324.679ZM86.901 325.907C86.901 326.596 86.2799 327.106 85.3967 327.106V327.303C86.3455 327.303 87.0984 326.744 87.0984 325.907H86.901ZM85.3967 327.106C84.8261 327.106 84.2967 326.767 84.0355 326.217L83.8573 326.302C84.1495 326.917 84.7461 327.303 85.3967 327.303V327.106ZM83.8997 326.173L83.3845 326.449L83.4779 326.623L83.9931 326.347L83.8997 326.173ZM83.3416 326.578C83.7112 327.377 84.5101 327.885 85.4253 327.885V327.688C84.5849 327.688 83.8572 327.222 83.5208 326.495L83.3416 326.578ZM85.4253 327.885C86.0795 327.885 86.6498 327.686 87.0581 327.334C87.4676 326.981 87.709 326.479 87.709 325.888H87.5116C87.5116 326.422 87.2951 326.869 86.9293 327.184C86.5624 327.501 86.0402 327.688 85.4253 327.688V327.885ZM87.709 325.888C87.709 325.052 87.1939 324.402 86.473 324.199L86.4195 324.389C87.0536 324.568 87.5116 325.139 87.5116 325.888H87.709ZM90.2846 324.466L90.2074 324.404L90.1527 324.473L90.2144 324.535L90.2846 324.466ZM92.9753 321.098L93.0524 321.159L93.1805 320.999H92.9753V321.098ZM92.1929 321.098V320.999H92.1453L92.1156 321.036L92.1929 321.098ZM89.7312 324.189H89.6325V324.472L89.8084 324.251L89.7312 324.189ZM89.7312 321.098H89.8299V320.999H89.7312V321.098ZM89.111 321.098V320.999H89.0123V321.098H89.111ZM89.111 327.672H89.0123V327.771H89.111V327.672ZM89.7312 327.672V327.771H89.8299V327.672H89.7312ZM89.7312 324.781L89.8012 324.711L89.6325 324.541V324.781H89.7312ZM92.6032 327.672L92.5331 327.741L92.5621 327.771H92.6032V327.672ZM93.4523 327.672V327.771H93.6886L93.5226 327.602L93.4523 327.672ZM90.3617 324.528L93.0524 321.159L92.8981 321.036L90.2074 324.404L90.3617 324.528ZM92.9753 320.999H92.1929V321.196H92.9753V320.999ZM92.1156 321.036L89.6539 324.128L89.8084 324.251L92.2701 321.159L92.1156 321.036ZM89.8299 324.189V321.098H89.6325V324.189H89.8299ZM89.7312 320.999H89.111V321.196H89.7312V320.999ZM89.0123 321.098V327.672H89.2097V321.098H89.0123ZM89.111 327.771H89.7312V327.573H89.111V327.771ZM89.8299 327.672V324.781H89.6325V327.672H89.8299ZM89.6611 324.85L92.5331 327.741L92.6732 327.602L89.8012 324.711L89.6611 324.85ZM92.6032 327.771H93.4523V327.573H92.6032V327.771ZM93.5226 327.602L90.3548 324.397L90.2144 324.535L93.3821 327.741L93.5226 327.602Z" fill="#141731"/>
</g>
<g opacity="0.5">
<path d="M83.6602 371.827V372.047H87.4672V371.417H84.7765L86.7707 369.06C87.181 368.602 87.4577 368.049 87.4577 367.438C87.4577 366.37 86.5894 365.625 85.5112 365.625C84.538 365.625 83.746 366.198 83.5934 367.123L84.1754 367.276C84.2613 366.627 84.8338 366.255 85.5112 366.255C86.2364 366.255 86.8279 366.713 86.8279 367.438C86.8279 367.858 86.6276 368.24 86.3127 368.612L83.6602 371.827ZM90.3429 368.765L92.9001 365.473H92.1558L89.675 368.669V365.473H89.0453V372.047H89.675V368.955L92.6043 372.047H93.4535L90.3429 368.765Z" fill="#141731"/>
<path d="M83.6602 371.827L83.584 371.765L83.5614 371.792V371.827H83.6602ZM83.6602 372.047H83.5614V372.146H83.6602V372.047ZM87.4672 372.047V372.146H87.5659V372.047H87.4672ZM87.4672 371.417H87.5659V371.318H87.4672V371.417ZM84.7765 371.417L84.7012 371.353L84.5637 371.516H84.7765V371.417ZM86.7707 369.06L86.6971 368.994L86.6953 368.997L86.7707 369.06ZM83.5934 367.123L83.496 367.107L83.4813 367.196L83.5683 367.219L83.5934 367.123ZM84.1754 367.276L84.1504 367.372L84.2586 367.4L84.2733 367.289L84.1754 367.276ZM86.3127 368.612L86.2373 368.548L86.2365 368.549L86.3127 368.612ZM83.5614 371.827V372.047H83.7589V371.827H83.5614ZM83.6602 372.146H87.4672V371.948H83.6602V372.146ZM87.5659 372.047V371.417H87.3685V372.047H87.5659ZM87.4672 371.318H84.7765V371.516H87.4672V371.318ZM84.8519 371.481L86.846 369.124L86.6953 368.997L84.7012 371.353L84.8519 371.481ZM86.8442 369.126C87.2655 368.656 87.5564 368.08 87.5564 367.438H87.359C87.359 368.018 87.0964 368.549 86.6972 368.995L86.8442 369.126ZM87.5564 367.438C87.5564 366.306 86.6348 365.527 85.5112 365.527V365.724C86.544 365.724 87.359 366.433 87.359 367.438H87.5564ZM85.5112 365.527C84.4988 365.527 83.6579 366.126 83.496 367.107L83.6908 367.14C83.8342 366.27 84.5772 365.724 85.5112 365.724V365.527ZM83.5683 367.219L84.1504 367.372L84.2004 367.181L83.6184 367.028L83.5683 367.219ZM84.2733 367.289C84.3507 366.704 84.8669 366.354 85.5112 366.354V366.156C84.8006 366.156 84.1718 366.551 84.0775 367.263L84.2733 367.289ZM85.5112 366.354C86.1963 366.354 86.7292 366.781 86.7292 367.438H86.9266C86.9266 366.645 86.2764 366.156 85.5112 366.156V366.354ZM86.7292 367.438C86.7292 367.825 86.5452 368.184 86.2373 368.548L86.388 368.676C86.71 368.295 86.9266 367.891 86.9266 367.438H86.7292ZM86.2365 368.549L83.584 371.765L83.7363 371.89L86.3888 368.675L86.2365 368.549ZM90.3429 368.765L90.265 368.704L90.213 368.771L90.2713 368.832L90.3429 368.765ZM92.9001 365.473L92.978 365.533L93.1017 365.374H92.9001V365.473ZM92.1558 365.473V365.374H92.1075L92.0778 365.412L92.1558 365.473ZM89.675 368.669H89.5763V368.957L89.753 368.73L89.675 368.669ZM89.675 365.473H89.7737V365.374H89.675V365.473ZM89.0453 365.473V365.374H88.9466V365.473H89.0453ZM89.0453 372.047H88.9466V372.146H89.0453V372.047ZM89.675 372.047V372.146H89.7737V372.047H89.675ZM89.675 368.955L89.7467 368.888L89.5763 368.708V368.955H89.675ZM92.6043 372.047L92.5326 372.115L92.5618 372.146H92.6043V372.047ZM93.4535 372.047V372.146H93.683L93.5251 371.979L93.4535 372.047ZM90.4209 368.825L92.978 365.533L92.8221 365.412L90.265 368.704L90.4209 368.825ZM92.9001 365.374H92.1558V365.571H92.9001V365.374ZM92.0778 365.412L89.597 368.609L89.753 368.73L92.2338 365.533L92.0778 365.412ZM89.7737 368.669V365.473H89.5763V368.669H89.7737ZM89.675 365.374H89.0453V365.571H89.675V365.374ZM88.9466 365.473V372.047H89.144V365.473H88.9466ZM89.0453 372.146H89.675V371.948H89.0453V372.146ZM89.7737 372.047V368.955H89.5763V372.047H89.7737ZM89.6034 369.023L92.5326 372.115L92.6759 371.979L89.7467 368.888L89.6034 369.023ZM92.6043 372.146H93.4535V371.948H92.6043V372.146ZM93.5251 371.979L90.4146 368.697L90.2713 368.832L93.3818 372.115L93.5251 371.979Z" fill="#141731"/>
</g>
<line opacity="0.1" x1="102.164" y1="281.472" x2="317.529" y2="281.472" stroke="#141731" stroke-width="0.681536"/>
<line opacity="0.1" x1="102.164" y1="327.144" x2="317.529" y2="327.144" stroke="#141731" stroke-width="0.681536"/>
<line opacity="0.1" x1="102.164" y1="372.112" x2="317.529" y2="372.112" stroke="#141731" stroke-width="0.681536"/>
</g>
</g>
<defs>
<filter id="filter0_f_6815_10579" x="140.332" y="193.231" width="119.269" height="81.7846" filterUnits="userSpaceOnUse" color-interpolation-filters="sRGB">
<feFlood flood-opacity="0" result="BackgroundImageFix"/>
<feBlend mode="normal" in="SourceGraphic" in2="BackgroundImageFix" result="shape"/>
<feGaussianBlur stdDeviation="13.6307" result="effect1_foregroundBlur_6815_10579"/>
</filter>
<linearGradient id="paint0_linear_6815_10579" x1="297.083" y1="-35.0925" x2="-140.397" y2="543.309" gradientUnits="userSpaceOnUse">
<stop stop-color="#6ED599"/>
<stop offset="1" stop-color="#1F2A6A"/>
</linearGradient>
<linearGradient id="paint1_linear_6815_10579" x1="200" y1="0" x2="358.631" y2="472.072" gradientUnits="userSpaceOnUse">
<stop stop-color="#232323"/>
<stop offset="1" stop-color="#232323" stop-opacity="0"/>
</linearGradient>
<linearGradient id="paint2_linear_6815_10579" x1="420.556" y1="-26.2499" x2="-240.795" y2="550.964" gradientUnits="userSpaceOnUse">
<stop stop-color="#6ED599"/>
<stop offset="1" stop-color="#3F4C99" stop-opacity="0"/>
</linearGradient>
<linearGradient id="paint3_linear_6815_10579" x1="345.517" y1="14.0449" x2="-83.9977" y2="893.131" gradientUnits="userSpaceOnUse">
<stop stop-color="#FF8049"/>
<stop offset="0.436314" stop-color="#FE721B"/>
<stop offset="1" stop-color="#FF4A3A"/>
</linearGradient>
<linearGradient id="paint4_linear_6815_10579" x1="200.521" y1="-40.2493" x2="200" y2="428.304" gradientUnits="userSpaceOnUse">
<stop stop-color="#F3F0EF"/>
<stop offset="1" stop-color="white"/>
</linearGradient>
<clipPath id="clip0_6815_10579">
<rect width="400" height="400" rx="30" fill="white"/>
</clipPath>
<clipPath id="clip1_6815_10579">
<rect x="64" y="64" width="272" height="368" rx="20" fill="white"/>
</clipPath>
</defs>
</svg>
