<svg width="400" height="400" viewBox="0 0 400 400" fill="none" xmlns="http://www.w3.org/2000/svg">
<g clip-path="url(#clip0_6815_10641)">
<rect width="400" height="400" rx="30" fill="#F5F5F5"/>
<g clip-path="url(#clip1_6815_10641)">
<rect x="64" y="64" width="272" height="378" rx="20" fill="url(#paint0_linear_6815_10641)"/>
<g opacity="0.7">
<g opacity="0.23" filter="url(#filter0_i_6815_10641)">
<rect x="97.3242" y="125.219" width="205.107" height="122.651" rx="16.9933" fill="url(#paint1_linear_6815_10641)"/>
</g>
<g filter="url(#filter1_f_6815_10641)">
<rect x="91.1992" y="139.117" width="217.514" height="54.3784" rx="16.9933" fill="url(#paint2_linear_6815_10641)"/>
</g>
</g>
<path d="M83.0234 154.056C83.0234 144.671 90.6316 137.062 100.017 137.062H299.857C309.243 137.062 316.851 144.671 316.851 154.056V253.296C316.851 262.682 309.243 270.29 299.857 270.29H100.017C90.6316 270.29 83.0234 262.682 83.0234 253.296V154.056Z" fill="url(#paint3_linear_6815_10641)"/>
<g style="mix-blend-mode:overlay" opacity="0.5">
<path d="M83.0234 154.056C83.0234 144.671 90.6316 137.062 100.017 137.062H299.857C309.243 137.062 316.851 144.671 316.851 154.056V253.296C316.851 262.682 309.243 270.29 299.857 270.29H100.017C90.6316 270.29 83.0234 262.682 83.0234 253.296V154.056Z" fill="url(#paint4_linear_6815_10641)"/>
<path d="M83.0234 154.056C83.0234 144.671 90.6316 137.062 100.017 137.062H299.857C309.243 137.062 316.851 144.671 316.851 154.056V253.296C316.851 262.682 309.243 270.29 299.857 270.29H100.017C90.6316 270.29 83.0234 262.682 83.0234 253.296V154.056Z" fill="url(#paint5_linear_6815_10641)"/>
</g>
<path opacity="0.6" d="M83.0234 154.056C83.0234 144.671 90.6316 137.062 100.017 137.062H299.857C309.243 137.062 316.851 144.671 316.851 154.056V253.296C316.851 262.682 309.243 270.29 299.857 270.29H100.017C90.6316 270.29 83.0234 262.682 83.0234 253.296V154.056Z" fill="url(#paint6_linear_6815_10641)"/>
<g opacity="0.7">
<path fill-rule="evenodd" clip-rule="evenodd" d="M299.857 137.742H100.017C91.007 137.742 83.7032 145.046 83.7032 154.056V253.296C83.7032 262.306 91.007 269.61 100.017 269.61H299.857C308.867 269.61 316.171 262.306 316.171 253.296V154.056C316.171 145.046 308.867 137.742 299.857 137.742ZM100.017 137.062C90.6316 137.062 83.0234 144.671 83.0234 154.056V253.296C83.0234 262.682 90.6316 270.29 100.017 270.29H299.857C309.243 270.29 316.851 262.682 316.851 253.296V154.056C316.851 144.671 309.243 137.062 299.857 137.062H100.017Z" fill="url(#paint7_linear_6815_10641)" fill-opacity="0.6" style="mix-blend-mode:overlay"/>
</g>
<circle cx="315.492" cy="94.6876" r="1.35946" fill="#FCFCFC"/>
<circle cx="310.07" cy="94.6876" r="1.35946" fill="#FCFCFC"/>
<circle cx="304.625" cy="94.6876" r="1.35946" fill="#FCFCFC"/>
<g filter="url(#filter2_d_6815_10641)">
<path d="M200.289 216.61C229.758 216.61 253.647 240.5 253.647 269.969C253.647 299.439 229.758 323.328 200.289 323.328C170.819 323.328 146.93 299.439 146.93 269.969C146.93 240.5 170.819 216.61 200.289 216.61Z" fill="url(#paint8_linear_6815_10641)"/>
<path d="M200.289 216.61C210.516 216.61 220.528 219.55 229.132 225.078C237.737 230.607 244.571 238.492 248.821 247.794C253.072 257.097 254.559 267.425 253.106 277.548C251.654 287.672 247.322 297.165 240.627 304.897L200.289 269.969L200.289 216.61Z" fill="#FF9459"/>
<g filter="url(#filter3_d_6815_10641)">
<circle cx="200.635" cy="269.627" r="33.9865" fill="white"/>
</g>
<path d="M179.132 275.834H178.504V282.391H181.92V281.801H179.132V275.834ZM182.923 276.738C183.189 276.738 183.399 276.557 183.399 276.31C183.399 276.053 183.189 275.872 182.923 275.872C182.675 275.872 182.457 276.053 182.457 276.31C182.457 276.557 182.675 276.738 182.923 276.738ZM183.227 282.391V277.947H182.618V282.391H183.227ZM189.79 277.832C189.267 277.832 188.496 278.023 188.153 278.898C187.906 278.213 187.306 277.832 186.593 277.832C185.936 277.832 185.289 278.146 185.07 278.736V277.947H184.461V282.391H185.07V279.926C185.089 278.86 185.774 278.422 186.488 278.422C187.192 278.422 187.706 278.965 187.706 279.831V282.391H188.306V280.126C188.306 278.936 188.857 278.413 189.695 278.422C190.428 278.422 190.942 278.974 190.942 279.831V282.391H191.551V279.802C191.551 278.575 190.865 277.832 189.79 277.832ZM193.039 276.738C193.305 276.738 193.515 276.557 193.515 276.31C193.515 276.053 193.305 275.872 193.039 275.872C192.792 275.872 192.573 276.053 192.573 276.31C192.573 276.557 192.792 276.738 193.039 276.738ZM193.344 282.391V277.947H192.735V282.391H193.344ZM195.481 277.947V276.281H194.882V277.947H194.073V278.47H194.882V282.391H195.481V278.47H196.499V277.947H195.481ZM200.532 282.505C201.455 282.505 202.168 281.981 202.168 281.192C202.168 280.678 201.902 280.154 201.036 279.945L200.379 279.783C200.056 279.707 199.694 279.526 199.694 279.108C199.694 278.689 200.046 278.375 200.56 278.375C200.998 278.375 201.388 278.641 201.417 279.041H202.007C201.978 278.242 201.293 277.832 200.551 277.832C199.704 277.832 199.085 278.375 199.085 279.098C199.085 279.84 199.589 280.164 200.218 280.316L200.855 280.468C201.312 280.583 201.559 280.82 201.559 281.182C201.559 281.629 201.169 281.962 200.532 281.962C199.884 281.962 199.542 281.582 199.475 281.211H198.914C198.99 282.058 199.761 282.505 200.532 282.505ZM205.449 277.832C204.706 277.832 204.002 278.213 203.679 278.822V277.947H203.07V284.551H203.679V281.525C204.012 282.134 204.697 282.505 205.449 282.505C206.695 282.505 207.704 281.525 207.704 280.173C207.704 278.822 206.695 277.832 205.449 277.832ZM205.401 281.924C204.516 281.924 203.679 281.23 203.679 280.154C203.679 279.127 204.478 278.413 205.401 278.413C206.343 278.413 207.105 279.193 207.105 280.183C207.105 281.163 206.343 281.924 205.401 281.924ZM212.797 280.154C212.797 278.746 211.865 277.832 210.599 277.832C209.343 277.832 208.344 278.746 208.344 280.154C208.344 281.563 209.343 282.505 210.599 282.505C211.437 282.505 212.198 282.086 212.588 281.372L212.065 281.144C211.77 281.629 211.227 281.924 210.618 281.924C209.724 281.924 209.058 281.372 208.953 280.421H212.778C212.788 280.335 212.797 280.24 212.797 280.154ZM208.962 279.897C209.086 278.946 209.724 278.413 210.599 278.413C211.465 278.413 212.103 278.974 212.188 279.897H208.962ZM215.848 277.832C215.296 277.832 214.572 278.108 214.306 278.746V277.947H213.697V282.391H214.306V279.926C214.325 278.851 215.077 278.432 215.791 278.432C216.504 278.432 217.047 278.974 217.047 279.831V282.391H217.656V279.802C217.656 278.575 216.923 277.832 215.848 277.832ZM219.668 277.947V276.281H219.069V277.947H218.26V278.47H219.069V282.391H219.668V278.47H220.687V277.947H219.668Z" fill="#141731"/>
</g>
<path opacity="0.6" d="M101.931 184.897L100.322 185.376L100.376 183.69H99.7345L99.778 185.376L98.1684 184.897L98.0053 185.506L99.5931 185.876L98.5925 187.17L99.1037 187.54L100.05 186.17L100.996 187.54L101.507 187.17L100.496 185.876L102.095 185.506L101.931 184.897ZM105.741 185.419V186.333L107.253 185.713V191.531H108.199V184.332H108.166L105.741 185.419ZM113.948 189.171V184.419H113.785L109.369 189.856V190.063H113.002V191.531H113.948V190.063H114.96V189.171H113.948ZM113.002 186.724V189.171H110.957L113.002 186.724ZM118.65 186.963C118.084 186.963 117.53 187.159 117.106 187.453L117.508 185.321H120.499V184.419H116.736L116.116 187.964L116.703 188.453C117.247 188.051 117.856 187.801 118.443 187.801C119.313 187.801 120.02 188.366 120.02 189.258C120.02 190.15 119.335 190.77 118.411 190.77C117.562 190.77 116.953 190.27 116.671 189.617L115.877 190.052C116.323 190.977 117.225 191.662 118.454 191.662C119.912 191.662 120.967 190.683 120.967 189.236C120.967 187.855 120.009 186.963 118.65 186.963ZM124.802 186.953C124.041 186.953 123.432 187.355 123.106 187.855C123.03 186.463 123.856 185.234 124.955 185.234C125.487 185.234 126.009 185.463 126.303 186.126L127.162 185.778C126.684 184.625 125.792 184.332 124.976 184.332C122.725 184.332 122.072 186.528 122.072 188.203C122.072 190.455 122.964 191.662 124.715 191.662C126.27 191.662 127.238 190.509 127.238 189.302C127.238 188.062 126.249 186.953 124.802 186.953ZM124.661 190.759C123.791 190.737 123.117 190.085 123.117 189.215C123.16 188.41 123.889 187.844 124.77 187.844C125.618 187.877 126.249 188.486 126.249 189.28C126.249 190.107 125.574 190.759 124.661 190.759Z" fill="white"/>
<path d="M81.8709 94.535C81.6054 94.8004 81.6054 95.2308 81.8709 95.4963L86.1967 99.822C86.4621 100.087 86.8925 100.087 87.1579 99.822C87.4234 99.5566 87.4234 99.1262 87.1579 98.8608L83.3128 95.0156L87.1579 91.1705C87.4234 90.905 87.4234 90.4747 87.1579 90.2092C86.8925 89.9438 86.4621 89.9438 86.1967 90.2092L81.8709 94.535ZM83.0312 94.3359H82.3515V95.6954H83.0312V94.3359Z" fill="white"/>
<path opacity="0.6" d="M96.8492 347.646H96.2212V354.203H96.8492V347.646ZM103.364 354.203V347.646H102.736V353.099L99.4246 347.646H98.7489V354.203H99.377V348.712L102.717 354.203H103.364ZM109.907 352.871C109.422 353.366 108.765 353.67 108.004 353.67C106.491 353.67 105.454 352.452 105.454 350.939C105.454 349.416 106.491 348.198 108.004 348.198C108.765 348.198 109.413 348.503 109.898 348.988L110.336 348.55C109.736 347.941 108.927 347.57 108.004 347.57C106.148 347.57 104.826 349.083 104.826 350.939C104.826 352.804 106.148 354.298 108.004 354.298C108.927 354.298 109.746 353.927 110.345 353.318L109.907 352.871ZM111.145 350.939C111.145 352.804 112.572 354.298 114.438 354.298C116.303 354.298 117.74 352.804 117.74 350.939C117.74 349.083 116.303 347.57 114.438 347.57C112.572 347.57 111.145 349.083 111.145 350.939ZM111.773 350.939C111.773 349.416 112.925 348.198 114.438 348.198C115.951 348.198 117.112 349.416 117.112 350.939C117.112 352.452 115.951 353.67 114.438 353.67C112.925 353.67 111.773 352.452 111.773 350.939ZM122.753 352.757L120.26 347.646H119.631L118.832 354.203H119.451L120.117 348.769L122.439 353.489H123.067L125.379 348.769L126.045 354.203H126.664L125.865 347.646H125.236L122.753 352.757ZM128.199 347.646V354.203H132.044V353.575H128.827V351.301H131.549V350.673H128.827V348.275H131.939V347.646H128.199Z" fill="white"/>
<path opacity="0.6" d="M229.862 355.317C231.29 355.317 232.051 354.318 232.051 353.395C232.051 352.443 231.337 351.901 230.3 351.644L229.405 351.416C228.435 351.178 228.34 350.664 228.34 350.359C228.34 349.627 229.034 349.122 229.777 349.122C230.557 349.122 231.166 349.589 231.204 350.312H231.823C231.785 349.217 230.909 348.532 229.796 348.532C228.711 348.532 227.712 349.275 227.712 350.359C227.712 350.883 227.902 351.673 229.263 351.996L230.148 352.206C230.795 352.367 231.423 352.71 231.423 353.424C231.423 354.042 230.909 354.727 229.862 354.727C228.939 354.727 228.34 354.109 228.283 353.462H227.664C227.712 354.413 228.568 355.317 229.862 355.317ZM233.483 348.646V355.203H234.111V352.643H236.033C237.403 352.643 237.936 351.663 237.936 350.645C237.936 349.636 237.403 348.646 236.062 348.646H233.483ZM234.111 352.053V349.236H236.052C236.956 349.236 237.308 349.941 237.308 350.645C237.308 351.359 236.947 352.053 236.005 352.053H234.111ZM239.882 352.282H242.603V351.692H239.882V349.236H243.003V348.646H239.263V355.203H243.108V354.613H239.882V352.282ZM248.576 354.099L245.226 348.646H244.57V355.203H245.198V349.741L248.557 355.203H249.204V348.646H248.576V354.099ZM250.369 348.646V349.236H252.453V355.203H253.081V349.236H255.175V348.646H250.369Z" fill="white"/>
<line opacity="0.1" x1="200.285" y1="345.516" x2="200.285" y2="389.018" stroke="white" stroke-width="0.67973"/>
<path d="M173.831 92.349L171.616 89.07H169.855L173.085 93.6582V97.5H174.59V93.6704L177.844 89.07H176.07L173.831 92.349ZM179.878 97.6468C181.505 97.6468 182.924 96.4478 182.924 94.637C182.924 92.8262 181.505 91.6394 179.878 91.6394C178.251 91.6394 176.844 92.8262 176.844 94.637C176.844 96.4478 178.251 97.6468 179.878 97.6468ZM179.878 96.3254C178.997 96.3254 178.275 95.6403 178.275 94.637C178.275 93.6582 178.997 92.9608 179.878 92.9608C180.759 92.9608 181.493 93.6582 181.493 94.637C181.493 95.6403 180.759 96.3254 179.878 96.3254ZM188.249 94.845C188.249 95.9584 187.441 96.3254 186.793 96.3254C186.156 96.3254 185.606 95.8483 185.606 94.9306V91.7862H184.186V94.9918C184.186 96.6558 185.006 97.6468 186.474 97.6468C187.049 97.6468 187.955 97.3287 188.249 96.6068V97.5H189.668V91.7862H188.249V94.845ZM194.416 91.6394C193.706 91.6394 193.082 92.0554 192.776 93.0097V91.7862H191.357V97.5H192.789V95.5057C192.789 93.9029 193.303 92.973 194.232 92.973C194.44 92.973 194.734 93.0097 195.064 93.181L195.346 91.8351C195.126 91.7128 194.759 91.6394 194.416 91.6394ZM201.697 97.6468C202.688 97.6468 203.496 97.2064 204.022 96.5457L203.018 95.7504C202.725 96.1052 202.235 96.3254 201.722 96.3254C200.73 96.3254 200.021 95.5913 200.021 94.637C200.021 93.6704 200.73 92.9608 201.722 92.9608C202.235 92.9608 202.725 93.181 203.018 93.5358L204.022 92.7405C203.496 92.0798 202.688 91.6394 201.697 91.6394C200.045 91.6394 198.589 92.8262 198.589 94.637C198.589 96.4478 200.045 97.6468 201.697 97.6468ZM209.49 92.5815C209.11 91.9819 208.352 91.6394 207.569 91.6394C205.954 91.6394 204.779 92.9118 204.779 94.637C204.779 96.4111 206.003 97.6468 207.532 97.6468C208.352 97.6468 209.11 97.2308 209.49 96.6068V97.5H210.909V91.7862H209.49V92.5815ZM207.826 96.3254C206.896 96.3254 206.198 95.5546 206.198 94.637C206.198 93.7193 206.896 92.9608 207.813 92.9608C208.658 92.9608 209.465 93.6582 209.465 94.637C209.465 95.5913 208.707 96.3254 207.826 96.3254ZM215.66 91.6394C214.951 91.6394 214.327 92.0554 214.021 93.0097V91.7862H212.601V97.5H214.033V95.5057C214.033 93.9029 214.547 92.973 215.477 92.973C215.685 92.973 215.978 93.0097 216.309 93.181L216.59 91.8351C216.37 91.7128 216.003 91.6394 215.66 91.6394ZM221.725 92.5325C221.333 91.933 220.538 91.6394 219.816 91.6394C218.311 91.6394 217.014 92.8017 217.014 94.637C217.014 96.46 218.323 97.6468 219.828 97.6468C220.526 97.6468 221.333 97.3409 221.725 96.7414V97.5H223.144V88.6785H221.725V92.5325ZM220.049 96.3254C219.168 96.3254 218.446 95.5791 218.446 94.6247C218.446 93.6704 219.168 92.9608 220.049 92.9608C220.868 92.9608 221.7 93.6215 221.7 94.6247C221.7 95.628 220.917 96.3254 220.049 96.3254ZM226.745 97.6468C227.908 97.6468 229.07 97.0106 229.07 95.8483C229.07 95.3221 228.837 94.5146 227.553 94.1843L226.635 93.9396C226.305 93.8662 226.023 93.6949 226.023 93.4012C226.023 93.0464 226.329 92.7895 226.77 92.7895C227.173 92.7895 227.528 93.0342 227.528 93.4257H228.886C228.899 92.1532 227.749 91.6394 226.733 91.6394C225.485 91.6394 224.604 92.4469 224.604 93.34C224.604 94.0619 224.934 94.7471 226.219 95.0897L226.978 95.2854C227.406 95.3833 227.651 95.5301 227.651 95.8483C227.651 96.2153 227.284 96.4967 226.721 96.4967C226.121 96.4967 225.779 96.1297 225.779 95.7381H224.445C224.47 96.9617 225.607 97.6468 226.745 97.6468Z" fill="white"/>
<circle cx="294.77" cy="165.942" r="8.09203" fill="#141731" stroke="#141731" stroke-width="0.809203"/>
<circle cx="283.903" cy="165.942" r="8.49663" fill="white"/>
</g>
</g>
<defs>
<filter id="filter0_i_6815_10641" x="97.3242" y="125.219" width="205.105" height="122.651" filterUnits="userSpaceOnUse" color-interpolation-filters="sRGB">
<feFlood flood-opacity="0" result="BackgroundImageFix"/>
<feBlend mode="normal" in="SourceGraphic" in2="BackgroundImageFix" result="shape"/>
<feColorMatrix in="SourceAlpha" type="matrix" values="0 0 0 0 0 0 0 0 0 0 0 0 0 0 0 0 0 0 127 0" result="hardAlpha"/>
<feOffset dy="0.67973"/>
<feComposite in2="hardAlpha" operator="arithmetic" k2="-1" k3="1"/>
<feColorMatrix type="matrix" values="0 0 0 0 0.546562 0 0 0 0 0.825 0 0 0 0 0.719645 0 0 0 0.7 0"/>
<feBlend mode="normal" in2="shape" result="effect1_innerShadow_6815_10641"/>
</filter>
<filter id="filter1_f_6815_10641" x="77.6046" y="125.523" width="244.705" height="81.5681" filterUnits="userSpaceOnUse" color-interpolation-filters="sRGB">
<feFlood flood-opacity="0" result="BackgroundImageFix"/>
<feBlend mode="normal" in="SourceGraphic" in2="BackgroundImageFix" result="shape"/>
<feGaussianBlur stdDeviation="6.79731" result="effect1_foregroundBlur_6815_10641"/>
</filter>
<filter id="filter2_d_6815_10641" x="112.943" y="214.816" width="174.692" height="174.691" filterUnits="userSpaceOnUse" color-interpolation-filters="sRGB">
<feFlood flood-opacity="0" result="BackgroundImageFix"/>
<feColorMatrix in="SourceAlpha" type="matrix" values="0 0 0 0 0 0 0 0 0 0 0 0 0 0 0 0 0 0 127 0" result="hardAlpha"/>
<feOffset dy="32.192"/>
<feGaussianBlur stdDeviation="16.9933"/>
<feColorMatrix type="matrix" values="0 0 0 0 0 0 0 0 0 0 0 0 0 0 0 0 0 0 0.1 0"/>
<feBlend mode="normal" in2="BackgroundImageFix" result="effect1_dropShadow_6815_10641"/>
<feBlend mode="normal" in="SourceGraphic" in2="effect1_dropShadow_6815_10641" result="shape"/>
</filter>
<filter id="filter3_d_6815_10641" x="133.052" y="221.242" width="135.165" height="135.165" filterUnits="userSpaceOnUse" color-interpolation-filters="sRGB">
<feFlood flood-opacity="0" result="BackgroundImageFix"/>
<feColorMatrix in="SourceAlpha" type="matrix" values="0 0 0 0 0 0 0 0 0 0 0 0 0 0 0 0 0 0 127 0" result="hardAlpha"/>
<feOffset dy="19.1977"/>
<feGaussianBlur stdDeviation="16.798"/>
<feColorMatrix type="matrix" values="0 0 0 0 0 0 0 0 0 0 0 0 0 0 0 0 0 0 0.1 0"/>
<feBlend mode="normal" in2="BackgroundImageFix" result="effect1_dropShadow_6815_10641"/>
<feBlend mode="normal" in="SourceGraphic" in2="effect1_dropShadow_6815_10641" result="shape"/>
</filter>
<linearGradient id="paint0_linear_6815_10641" x1="349.978" y1="39.1938" x2="-37.6183" y2="305.045" gradientUnits="userSpaceOnUse">
<stop stop-color="#6ED599"/>
<stop offset="0.570771" stop-color="#3D6171"/>
<stop offset="1" stop-color="#2D475F"/>
</linearGradient>
<linearGradient id="paint1_linear_6815_10641" x1="199.878" y1="125.219" x2="199.878" y2="247.87" gradientUnits="userSpaceOnUse">
<stop stop-color="#141731"/>
<stop offset="1" stop-color="#518D83" stop-opacity="0"/>
</linearGradient>
<linearGradient id="paint2_linear_6815_10641" x1="199.956" y1="139.117" x2="199.956" y2="193.496" gradientUnits="userSpaceOnUse">
<stop stop-color="#141731"/>
<stop offset="1" stop-color="#518D83" stop-opacity="0"/>
</linearGradient>
<linearGradient id="paint3_linear_6815_10641" x1="199.937" y1="137.062" x2="194.627" y2="298.312" gradientUnits="userSpaceOnUse">
<stop stop-color="#FF8049"/>
<stop offset="1" stop-color="#FF8049" stop-opacity="0"/>
</linearGradient>
<linearGradient id="paint4_linear_6815_10641" x1="199.937" y1="137.062" x2="194.627" y2="298.312" gradientUnits="userSpaceOnUse">
<stop stop-color="#FF8049"/>
<stop offset="1" stop-color="#FF8049" stop-opacity="0"/>
</linearGradient>
<linearGradient id="paint5_linear_6815_10641" x1="89.0051" y1="128.674" x2="300.29" y2="287.458" gradientUnits="userSpaceOnUse">
<stop stop-color="white"/>
<stop offset="1" stop-opacity="0"/>
</linearGradient>
<linearGradient id="paint6_linear_6815_10641" x1="199.937" y1="137.062" x2="215.571" y2="301.217" gradientUnits="userSpaceOnUse">
<stop stop-color="#EF945B"/>
<stop offset="1" stop-color="#EF945B" stop-opacity="0"/>
</linearGradient>
<linearGradient id="paint7_linear_6815_10641" x1="83.0234" y1="130.154" x2="196.882" y2="249.484" gradientUnits="userSpaceOnUse">
<stop stop-color="white"/>
<stop offset="0.556633" stop-color="white" stop-opacity="0"/>
</linearGradient>
<linearGradient id="paint8_linear_6815_10641" x1="130.196" y1="323.328" x2="326.424" y2="216.61" gradientUnits="userSpaceOnUse">
<stop stop-color="#62B58E"/>
<stop offset="1" stop-color="#3D6171"/>
</linearGradient>
<clipPath id="clip0_6815_10641">
<rect width="400" height="400" rx="30" fill="white"/>
</clipPath>
<clipPath id="clip1_6815_10641">
<rect x="64" y="64" width="272" height="378" rx="20" fill="white"/>
</clipPath>
</defs>
</svg>
