<svg width="190" height="191" viewBox="0 0 190 191" fill="none" xmlns="http://www.w3.org/2000/svg">
<g clip-path="url(#clip0_7416_9908)">
<path fill-rule="evenodd" clip-rule="evenodd" d="M154.1 120L151.482 119.668C130.951 117.068 111.975 107.373 97.8359 92.2602V92.2602C87.1142 80.8 79.6238 66.701 76.1288 51.4014L73.2105 38.6263C71.535 31.2919 70.6926 23.7918 70.6992 16.2685L70.9756 -299C70.9901 -315.569 57.5705 -329 41.0019 -329L-298.998 -329C-315.567 -329 -329.01 -315.569 -329.024 -299L-329.323 40.9995C-329.337 57.5681 -315.917 70.9995 -299.349 70.9995L4.51663 70.9995C12.0107 70.9995 19.481 71.8419 26.7869 73.5109L38.8728 76.2718C58.3219 80.7147 75.9975 90.8735 89.6271 105.442L91.6945 107.652C105.24 122.13 114.175 140.308 117.366 159.875L117.644 161.577C118.516 166.927 118.952 172.339 118.947 177.759L118.674 490C118.659 506.568 132.079 520 148.647 520L488.647 520C505.216 520 518.659 506.568 518.674 490L518.972 150C518.986 133.431 505.567 120 488.998 120L154.1 120Z" fill="#F5F5F5"/>
</g>
<defs>
<clipPath id="clip0_7416_9908">
<rect width="190" height="191" fill="white"/>
</clipPath>
</defs>
</svg>
