<svg width="30" height="43" viewBox="0 0 30 43" fill="none" xmlns="http://www.w3.org/2000/svg">
<path fill-rule="evenodd" clip-rule="evenodd" d="M8.06739 22.3751C11.3948 21.4836 13.3738 18.0798 12.4877 14.7727C11.6015 11.4656 8.18578 9.50735 4.85838 10.3989C1.53098 11.2905 -0.448046 14.6942 0.438098 18.0014C1.32424 21.3085 4.73999 23.2667 8.06739 22.3751ZM6.79821 19.1641L6.97248 19.8145L7.85087 19.5791L7.67914 18.9382C7.89072 18.8475 8.07685 18.7354 8.23754 18.6021C8.49467 18.3856 8.67196 18.1337 8.76941 17.8462C8.86687 17.5587 8.87225 17.2532 8.78555 16.9296C8.68656 16.5602 8.50646 16.2914 8.24526 16.1233C7.98585 15.9521 7.61148 15.8622 7.12216 15.8536L6.10538 15.8349C5.8357 15.8295 5.62895 15.7917 5.48515 15.7216C5.34377 15.6508 5.254 15.5441 5.21583 15.4017C5.18153 15.2737 5.19211 15.1479 5.24755 15.0244C5.30234 14.8984 5.39277 14.7888 5.51882 14.6955C5.64422 14.5998 5.79593 14.5294 5.97396 14.4842C6.15992 14.4396 6.33793 14.4333 6.50799 14.4654C6.67805 14.4974 6.83036 14.5653 6.96492 14.669C7.09948 14.7727 7.20674 14.9057 7.2867 15.0681L8.14328 14.6638C7.98255 14.3653 7.78188 14.1266 7.54125 13.9478C7.30305 13.7684 7.03293 13.6544 6.73086 13.606C6.5748 13.5804 6.41281 13.5736 6.24491 13.5856L6.06808 12.9257L5.18969 13.161L5.36182 13.8034C5.16817 13.8864 4.99884 13.9882 4.85381 14.1089C4.61467 14.305 4.45082 14.5391 4.36229 14.8113C4.27553 15.0804 4.27356 15.3695 4.35637 15.6785C4.53365 16.3401 5.02082 16.6858 5.81788 16.7155L7.18742 16.7678C7.40835 16.7759 7.57792 16.8158 7.69613 16.8877C7.8137 16.9571 7.89286 17.0679 7.93362 17.22C7.99185 17.4373 7.94286 17.6432 7.78665 17.8378C7.62978 18.0299 7.4007 18.1664 7.0994 18.2471C6.78595 18.3311 6.49295 18.3164 6.22039 18.2031C5.94961 18.0867 5.74042 17.8892 5.5928 17.6104L4.76223 17.9805C4.90383 18.3049 5.09997 18.5654 5.35063 18.7623C5.60372 18.9584 5.89417 19.085 6.22198 19.1421C6.40742 19.1744 6.59949 19.1817 6.79821 19.1641Z" fill="white"/>
<path fill-rule="evenodd" clip-rule="evenodd" d="M23.6133 9.34805C26.1706 9.66975 28.5059 7.84615 28.8294 5.27491C29.1528 2.70368 27.3419 0.358495 24.7847 0.0367927C22.2274 -0.284909 19.8921 1.5387 19.5686 4.10993C19.2452 6.68116 21.0561 9.02635 23.6133 9.34805ZM23.6204 6.73023L23.5568 7.23587L24.2319 7.32079L24.2946 6.82252C24.4668 6.81912 24.6275 6.79351 24.7766 6.7457C25.016 6.66712 25.2102 6.54089 25.3592 6.36703C25.5082 6.19316 25.5985 5.98044 25.6301 5.72889C25.6663 5.44166 25.6177 5.20194 25.4844 5.00973C25.3532 4.81587 25.1194 4.64629 24.783 4.50099L24.084 4.19852C23.8988 4.11801 23.7663 4.03269 23.6866 3.94256C23.6087 3.85268 23.5767 3.75235 23.5907 3.64159C23.6032 3.54209 23.6462 3.45692 23.7196 3.38606C23.7932 3.31332 23.8869 3.26217 24.0007 3.23262C24.1146 3.20119 24.2397 3.19499 24.3758 3.21402C24.5172 3.23563 24.6423 3.28187 24.751 3.35276C24.8597 3.42364 24.9459 3.51459 25.0098 3.62559C25.0736 3.7366 25.1102 3.86039 25.1195 3.99697L25.8274 3.95729C25.8007 3.7022 25.7293 3.47773 25.6133 3.28388C25.4992 3.09027 25.3444 2.93349 25.1489 2.81355C25.0481 2.75119 24.9378 2.70033 24.8181 2.66096L24.8826 2.14787L24.2076 2.06295L24.1447 2.56238C23.9871 2.56548 23.8409 2.58871 23.7063 2.63207C23.4851 2.7015 23.3053 2.81904 23.1668 2.9847C23.0305 3.14871 22.9472 3.35087 22.9169 3.59116C22.8522 4.10554 23.0917 4.48656 23.6353 4.73421L24.5691 5.16061C24.7198 5.22915 24.8259 5.30544 24.8875 5.38945C24.9492 5.4716 24.9727 5.5718 24.9578 5.69007C24.9365 5.85903 24.8442 5.98949 24.6809 6.08146C24.5178 6.17155 24.3205 6.20203 24.0889 6.1729C23.848 6.14259 23.6492 6.04893 23.4926 5.89192C23.338 5.73326 23.2491 5.53519 23.2258 5.29771L22.5457 5.32085C22.5519 5.5886 22.6138 5.82715 22.7317 6.03649C22.8514 6.24606 23.0167 6.41751 23.2275 6.55083C23.3468 6.62625 23.4778 6.68604 23.6204 6.73023Z" fill="white"/>
<path fill-rule="evenodd" clip-rule="evenodd" d="M19.0305 42.7105C23.5565 43.9219 28.2098 41.2344 29.424 36.7077C30.6382 32.181 27.9535 27.5293 23.4275 26.3179C18.9016 25.1064 14.2483 27.794 13.0341 32.3207C11.8199 36.8473 14.5046 41.499 19.0305 42.7105ZM19.6899 38.0282L19.4511 38.9184L20.6459 39.2382L20.8812 38.361C21.1922 38.3977 21.4879 38.3917 21.7681 38.3431C22.2185 38.2617 22.5992 38.0838 22.9102 37.8092C23.2212 37.5347 23.4361 37.176 23.5549 36.7331C23.6905 36.2275 23.662 35.7859 23.4692 35.4084C23.2806 35.0285 22.9012 34.6666 22.3311 34.3227L21.1468 33.6072C20.8329 33.4169 20.6153 33.2311 20.4939 33.0498C20.3758 32.8695 20.3429 32.6818 20.3952 32.4868C20.4422 32.3116 20.5405 32.1697 20.6901 32.0609C20.8406 31.9489 21.0219 31.8805 21.234 31.8558C21.4469 31.8278 21.6736 31.8477 21.914 31.9156C22.1634 31.9895 22.3773 32.1034 22.5556 32.2574C22.7339 32.4114 22.8669 32.5958 22.9545 32.8105C23.0422 33.0252 23.0777 33.2561 23.061 33.5032L24.3454 33.6079C24.3599 33.1442 24.2866 32.7243 24.1253 32.3481C23.9674 31.9729 23.7272 31.6535 23.4046 31.3901C23.2383 31.2533 23.0523 31.1348 22.8464 31.0345L23.0887 30.1312L21.8939 29.8114L21.6581 30.6907C21.3734 30.6571 21.1046 30.6624 20.8514 30.7067C20.4361 30.7761 20.0834 30.9421 19.7933 31.2045C19.5075 31.4645 19.3079 31.8061 19.1944 32.2291C18.9515 33.1347 19.2891 33.8768 20.2072 34.4556L21.7839 35.4514C22.0384 35.6117 22.2108 35.7747 22.3009 35.9405C22.392 36.103 22.4095 36.2884 22.3537 36.4966C22.2739 36.7941 22.0757 37.0049 21.7589 37.1291C21.4431 37.2501 21.0803 37.2557 20.6705 37.146C20.2441 37.0318 19.9092 36.8147 19.6656 36.4944C19.4263 36.1718 19.3148 35.7948 19.3313 35.3635L18.1009 35.2361C18.0462 35.7174 18.0992 36.1602 18.26 36.5645C18.424 36.9698 18.6796 37.318 19.0265 37.6092C19.2228 37.774 19.4439 37.9136 19.6899 38.0282Z" fill="white"/>
</svg>
