<svg width="34" height="38" viewBox="0 0 34 38" fill="none" xmlns="http://www.w3.org/2000/svg">
<path d="M24.1915 27.2683L26.7192 24.3064C26.8976 24.0974 27.2494 24.1916 27.2993 24.4618L28.0074 28.2908C28.0278 28.4009 28.1054 28.4938 28.2123 28.536L31.9302 30.0041C32.1926 30.1077 32.2145 30.4607 31.9664 30.5863L28.4501 32.3652C28.349 32.4163 28.2833 32.5154 28.2767 32.6266L28.0468 36.4959C28.0306 36.769 27.6923 36.8929 27.489 36.7003L24.6078 33.9707C24.5249 33.8922 24.4067 33.8605 24.2957 33.8871L20.4357 34.8104C20.1633 34.8755 19.9323 34.5991 20.0548 34.3545L21.7903 30.8886C21.8403 30.7889 21.8329 30.6704 21.7709 30.5755L19.6152 27.2768C19.4631 27.044 19.6586 26.7492 19.9376 26.7907L23.8914 27.3783C24.0052 27.3952 24.1188 27.3535 24.1915 27.2683Z" fill="white" stroke="white" stroke-width="2" stroke-linecap="round" stroke-linejoin="round"/>
<path d="M7.38604 13.4792L5.58361 11.2327C5.45641 11.0742 5.21285 11.1394 5.18196 11.3403L4.74424 14.187C4.73165 14.2689 4.67897 14.3371 4.60514 14.3671L2.03803 15.4088C1.85686 15.4823 1.84669 15.7454 2.02125 15.8427L4.49479 17.2207C4.56594 17.2603 4.61308 17.3351 4.61929 17.4183L4.83516 20.3086C4.8504 20.5126 5.08767 20.6099 5.22645 20.4691L7.1929 18.474C7.24946 18.4167 7.33127 18.3947 7.40895 18.4162L10.1095 19.1607C10.3001 19.2133 10.4569 19.0103 10.3681 18.8261L9.10987 16.215C9.07368 16.1399 9.0771 16.0516 9.11889 15.9817L10.572 13.5515C10.6746 13.38 10.5342 13.1572 10.3406 13.1842L7.59651 13.5655C7.51759 13.5765 7.43788 13.5438 7.38604 13.4792Z" fill="white" stroke="white" stroke-width="2" stroke-linecap="round" stroke-linejoin="round"/>
<path d="M24.8619 3.8L24.5701 1.90219C24.5495 1.76826 24.3871 1.72475 24.3023 1.83044L23.1007 3.32809C23.0661 3.37117 23.013 3.39297 22.9604 3.38565L21.131 3.13141C21.0019 3.11347 20.9083 3.26197 20.9767 3.37631L21.9455 4.99642C21.9733 5.04301 21.9756 5.10193 21.9515 5.152L21.1127 6.89268C21.0535 7.01552 21.158 7.15081 21.2851 7.11578L23.0854 6.61941C23.1372 6.60514 23.1918 6.61975 23.2295 6.65801L24.5404 7.98805C24.6329 8.08192 24.7911 8.01702 24.8013 7.88104L24.9452 5.95416C24.9493 5.89874 24.9808 5.84885 25.0282 5.82243L26.6772 4.90376C26.7936 4.83893 26.7868 4.66353 26.666 4.61452L24.9546 3.92001C24.9054 3.90004 24.8703 3.85459 24.8619 3.8Z" fill="white" stroke="white" stroke-width="2" stroke-linecap="round" stroke-linejoin="round"/>
</svg>
