<svg width="157" height="161" viewBox="0 0 157 161" fill="none" xmlns="http://www.w3.org/2000/svg">
<g clip-path="url(#clip0_7573_11839)">
<path d="M137.502 104.669L140.106 104.999H157V161H104.927C104.854 156.104 104.422 151.22 103.634 146.387L103.388 144.876C100.197 125.309 91.2612 107.131 77.7162 92.6529L75.6382 90.4318C62.0086 75.8633 44.333 65.7045 24.8839 61.2615L17.2206 59.5109C11.5573 58.2172 5.79531 57.4202 0 57.1272L56.7229 0L56.7217 1.26443C56.7151 8.78779 57.5575 16.2878 59.233 23.6223L62.1537 36.407C65.6484 51.7055 73.1381 65.8034 83.859 77.2629C97.9967 92.3744 116.972 102.069 137.502 104.669Z" fill="white"/>
</g>
<defs>
<clipPath id="clip0_7573_11839">
<rect width="157" height="161" fill="white"/>
</clipPath>
</defs>
</svg>
